# Created by Kenney (www.kenney.nl)

mtllib chest.mtl

g chest

v 0.125 0.1 -0.125 1 1 1
v -0.125 0.1 -0.125 1 1 1
v 0.125 0.2 -0.125 1 1 1
v -0.125 0.2 -0.125 1 1 1
v -0.125 0.2 0.125 1 1 1
v -0.125 0.1 0.125 1 1 1
v 0.125 0.1 0.125 1 1 1
v 0.125 0.2 0.125 1 1 1
v 0.25 0 0.25 1 1 1
v 0.25 0 0.15 1 1 1
v 0.15 0 0.25 1 1 1
v 0.2 0 0.15 1 1 1
v 0.2 0 -0.15 1 1 1
v 0.15 0 0.2 1 1 1
v 0.15 0 -0.25 1 1 1
v 0.25 0 -0.25 1 1 1
v 0.25 0 -0.15 1 1 1
v 0.15 0 -0.2 1 1 1
v -0.15 0 0.2 1 1 1
v -0.15 0 -0.2 1 1 1
v -0.2 0 0.15 1 1 1
v -0.15 0 -0.25 1 1 1
v -0.25 0 0.25 1 1 1
v -0.15 0 0.25 1 1 1
v -0.25 0 0.15 1 1 1
v -0.2 0 -0.15 1 1 1
v -0.25 0 -0.25 1 1 1
v -0.25 0 -0.15 1 1 1
v -0.25 0.2 0.15 1 1 1
v -0.25 0.2 0.25 1 1 1
v 0.25 0.2 0.15 1 1 1
v 0.25 0.2 0.25 1 1 1
v 0.2 0.2 0.15 1 1 1
v -0.2 0.2 0.15 1 1 1
v -0.15 0.2 -0.25 1 1 1
v -0.15 0.2 -0.2 1 1 1
v -0.15 0.2 0.2 1 1 1
v -0.15 0.2 0.25 1 1 1
v 0.15 0.2 -0.25 1 1 1
v 0.25 0.2 -0.25 1 1 1
v -0.25 0.2 -0.25 1 1 1
v 0.25 0.2 -0.15 1 1 1
v 0.2 0.2 -0.15 1 1 1
v -0.25 0.2 -0.15 1 1 1
v -0.2 0.2 -0.15 1 1 1
v 0.15 0.2 0.2 1 1 1
v 0.15 0.2 0.25 1 1 1
v 0.15 0.2 -0.2 1 1 1

vn 0 0 1
vn 1 0 0
vn 0 1 0
vn -1 0 0
vn 0 0 -1
vn 0 -1 0

vt 0.34375 0.125
vt 0.34375 0.175
vt 0.09375 0.075
vt 0.09375 0.175
vt 0.21875 0.075
vt 0.21875 0.175
vt 0.84375 0.075

usemtl colormap

f 3/2/1 2/1/1 1/1/1
f 2/1/1 3/2/1 4/2/1
f 5/2/2 2/1/2 4/2/2
f 2/1/2 5/2/2 6/1/2
f 1/1/3 6/1/3 7/1/3
f 6/1/3 1/1/3 2/1/3
f 7/1/4 3/2/4 1/1/4
f 3/2/4 7/1/4 8/2/4
f 5/2/5 7/1/5 6/1/5
f 7/1/5 5/2/5 8/2/5
f 11/3/6 10/3/6 9/3/6
f 10/3/6 11/3/6 12/3/6
f 12/3/6 11/3/6 13/3/6
f 14/3/6 13/3/6 11/3/6
f 15/3/6 13/3/6 14/3/6
f 16/3/6 13/3/6 15/3/6
f 13/3/6 16/3/6 17/3/6
f 15/3/6 14/3/6 18/3/6
f 19/3/6 18/3/6 14/3/6
f 18/3/6 19/3/6 20/3/6
f 19/3/6 21/3/6 20/3/6
f 20/3/6 21/3/6 22/3/6
f 19/3/6 23/3/6 21/3/6
f 23/3/6 19/3/6 24/3/6
f 21/3/6 23/3/6 25/3/6
f 26/3/6 22/3/6 21/3/6
f 22/3/6 26/3/6 27/3/6
f 27/3/6 26/3/6 28/3/6
f 23/3/4 29/4/4 25/3/4
f 29/4/4 23/3/4 30/4/4
f 32/4/2 10/3/2 31/4/2
f 10/3/2 32/4/2 9/3/2
f 33/4/5 10/3/5 12/3/5
f 10/3/5 33/4/5 31/4/5
f 29/4/5 21/3/5 25/3/5
f 21/3/5 29/4/5 34/4/5
f 36/4/2 22/3/2 35/4/2
f 22/3/2 36/4/2 20/3/2
f 38/4/2 19/3/2 37/4/2
f 19/3/2 38/4/2 24/3/2
f 39/4/5 16/3/5 15/3/5
f 16/3/5 39/4/5 40/4/5
f 38/4/1 23/3/1 24/3/1
f 23/3/1 38/4/1 30/4/1
f 41/4/5 22/3/5 27/3/5
f 22/3/5 41/4/5 35/4/5
f 42/4/2 16/3/2 40/4/2
f 16/3/2 42/4/2 17/3/2
f 42/4/1 13/3/1 17/3/1
f 13/3/1 42/4/1 43/4/1
f 28/3/4 41/4/4 27/3/4
f 41/4/4 28/3/4 44/4/4
f 45/4/1 28/3/1 26/3/1
f 28/3/1 45/4/1 44/4/1
f 11/3/4 46/4/4 14/3/4
f 46/4/4 11/3/4 47/4/4
f 18/3/4 39/4/4 15/3/4
f 39/4/4 18/3/4 48/4/4
f 32/4/1 11/3/1 9/3/1
f 11/3/1 32/4/1 47/4/1
f 37/4/3 30/4/3 38/4/3
f 30/4/3 37/4/3 34/4/3
f 30/4/3 34/4/3 29/4/3
f 31/4/3 47/4/3 32/4/3
f 47/4/3 31/4/3 33/4/3
f 47/4/3 33/4/3 46/4/3
f 35/4/3 45/4/3 36/4/3
f 45/4/3 35/4/3 41/4/3
f 45/4/3 41/4/3 44/4/3
f 40/4/3 43/4/3 42/4/3
f 43/4/3 40/4/3 39/4/3
f 43/4/3 39/4/3 48/4/3
f 46/6/1 19/5/1 14/5/1
f 19/5/1 46/6/1 37/6/1
f 21/5/4 45/6/4 26/5/4
f 45/6/4 21/5/4 34/6/4
f 33/6/2 13/5/2 43/6/2
f 13/5/2 33/6/2 12/5/2
f 36/6/5 18/5/5 20/5/5
f 18/5/5 36/6/5 48/6/5
f 34/7/3 36/7/3 45/7/3
f 37/7/3 36/7/3 34/7/3
f 4/7/3 36/7/3 37/7/3
f 37/7/3 5/7/3 4/7/3
f 3/7/3 36/7/3 4/7/3
f 37/7/3 8/7/3 5/7/3
f 3/7/3 48/7/3 36/7/3
f 48/7/3 3/7/3 8/7/3
f 46/7/3 8/7/3 37/7/3
f 46/7/3 48/7/3 8/7/3
f 46/7/3 43/7/3 48/7/3
f 43/7/3 46/7/3 33/7/3

g chest




usemtl colormap

f 3/2/1 2/1/1 1/1/1
f 2/1/1 3/2/1 4/2/1
f 5/2/2 2/1/2 4/2/2
f 2/1/2 5/2/2 6/1/2
f 1/1/3 6/1/3 7/1/3
f 6/1/3 1/1/3 2/1/3
f 7/1/4 3/2/4 1/1/4
f 3/2/4 7/1/4 8/2/4
f 5/2/5 7/1/5 6/1/5
f 7/1/5 5/2/5 8/2/5
f 11/3/6 10/3/6 9/3/6
f 10/3/6 11/3/6 12/3/6
f 12/3/6 11/3/6 13/3/6
f 14/3/6 13/3/6 11/3/6
f 15/3/6 13/3/6 14/3/6
f 16/3/6 13/3/6 15/3/6
f 13/3/6 16/3/6 17/3/6
f 15/3/6 14/3/6 18/3/6
f 19/3/6 18/3/6 14/3/6
f 18/3/6 19/3/6 20/3/6
f 19/3/6 21/3/6 20/3/6
f 20/3/6 21/3/6 22/3/6
f 19/3/6 23/3/6 21/3/6
f 23/3/6 19/3/6 24/3/6
f 21/3/6 23/3/6 25/3/6
f 26/3/6 22/3/6 21/3/6
f 22/3/6 26/3/6 27/3/6
f 27/3/6 26/3/6 28/3/6
f 23/3/4 29/4/4 25/3/4
f 29/4/4 23/3/4 30/4/4
f 32/4/2 10/3/2 31/4/2
f 10/3/2 32/4/2 9/3/2
f 33/4/5 10/3/5 12/3/5
f 10/3/5 33/4/5 31/4/5
f 29/4/5 21/3/5 25/3/5
f 21/3/5 29/4/5 34/4/5
f 36/4/2 22/3/2 35/4/2
f 22/3/2 36/4/2 20/3/2
f 38/4/2 19/3/2 37/4/2
f 19/3/2 38/4/2 24/3/2
f 39/4/5 16/3/5 15/3/5
f 16/3/5 39/4/5 40/4/5
f 38/4/1 23/3/1 24/3/1
f 23/3/1 38/4/1 30/4/1
f 41/4/5 22/3/5 27/3/5
f 22/3/5 41/4/5 35/4/5
f 42/4/2 16/3/2 40/4/2
f 16/3/2 42/4/2 17/3/2
f 42/4/1 13/3/1 17/3/1
f 13/3/1 42/4/1 43/4/1
f 28/3/4 41/4/4 27/3/4
f 41/4/4 28/3/4 44/4/4
f 45/4/1 28/3/1 26/3/1
f 28/3/1 45/4/1 44/4/1
f 11/3/4 46/4/4 14/3/4
f 46/4/4 11/3/4 47/4/4
f 18/3/4 39/4/4 15/3/4
f 39/4/4 18/3/4 48/4/4
f 32/4/1 11/3/1 9/3/1
f 11/3/1 32/4/1 47/4/1
f 37/4/3 30/4/3 38/4/3
f 30/4/3 37/4/3 34/4/3
f 30/4/3 34/4/3 29/4/3
f 31/4/3 47/4/3 32/4/3
f 47/4/3 31/4/3 33/4/3
f 47/4/3 33/4/3 46/4/3
f 35/4/3 45/4/3 36/4/3
f 45/4/3 35/4/3 41/4/3
f 45/4/3 41/4/3 44/4/3
f 40/4/3 43/4/3 42/4/3
f 43/4/3 40/4/3 39/4/3
f 43/4/3 39/4/3 48/4/3
f 46/6/1 19/5/1 14/5/1
f 19/5/1 46/6/1 37/6/1
f 21/5/4 45/6/4 26/5/4
f 45/6/4 21/5/4 34/6/4
f 33/6/2 13/5/2 43/6/2
f 13/5/2 33/6/2 12/5/2
f 36/6/5 18/5/5 20/5/5
f 18/5/5 36/6/5 48/6/5
f 34/7/3 36/7/3 45/7/3
f 37/7/3 36/7/3 34/7/3
f 4/7/3 36/7/3 37/7/3
f 37/7/3 5/7/3 4/7/3
f 3/7/3 36/7/3 4/7/3
f 37/7/3 8/7/3 5/7/3
f 3/7/3 48/7/3 36/7/3
f 48/7/3 3/7/3 8/7/3
f 46/7/3 8/7/3 37/7/3
f 46/7/3 48/7/3 8/7/3
f 46/7/3 43/7/3 48/7/3
f 43/7/3 46/7/3 33/7/3

g lid

v -0.25 0.325 -0.2165063 1 1 1
v -0.25 0.4165064 -0.125 1 1 1
v -0.25 0.306066 -0.106066 1 1 1
v -0.25 0.45 0 1 1 1
v -0.25 0.35 0 1 1 1
v -0.25 0.306066 0.106066 1 1 1
v -0.25 0.4165064 0.125 1 1 1
v -0.25 0.2 0.15 1 1 1
v -0.25 0.325 0.2165063 1 1 1
v -0.25 0.2 0.25 1 1 1
v 0.25 0.2 0.25 1 1 1
v 0.15 0.2 0.25 1 1 1
v 0.25 0.325 0.2165063 1 1 1
v 0.15 0.325 0.2165063 1 1 1
v -0.15 0.45 0 1 1 1
v -0.15 0.4165064 0.125 1 1 1
v -0.15 0.2 0.25 1 1 1
v -0.15 0.325 0.2165063 1 1 1
v 0.05 0.25 0.1866025 1 1 1
v 0.05 0.2 0.2 1 1 1
v 0.05 0.25 0.25 1 1 1
v 0.05 0.15 0.2 1 1 1
v 0.05 0.15 0.25 1 1 1
v -0.05 0.15 0.2 1 1 1
v -0.05 0.2 0.2 1 1 1
v -0.05 0.15 0.25 1 1 1
v -0.05 0.25 0.25 1 1 1
v -0.05 0.25 0.1866025 1 1 1
v 0.25 0.45 0 1 1 1
v 0.25 0.4165064 0.125 1 1 1
v 0.15 0.45 0 1 1 1
v 0.15 0.4165064 0.125 1 1 1
v 0.15 0.325 -0.2165063 1 1 1
v 0.25 0.325 -0.2165063 1 1 1
v -0.2 0.2 0.15 1 1 1
v -0.2 0.306066 0.106066 1 1 1
v -0.15 0.4165064 -0.125 1 1 1
v -0.2 0.306066 -0.106066 1 1 1
v -0.2 0.35 0 1 1 1
v 0.25 0.4165064 -0.125 1 1 1
v 0.15 0.4165064 -0.125 1 1 1
v -0.15 0.325 -0.2165063 1 1 1
v 0.25 0.35 0 1 1 1
v 0.2 0.35 0 1 1 1
v 0.25 0.306066 0.106066 1 1 1
v 0.2 0.306066 0.106066 1 1 1
v 0.25 0.306066 -0.106066 1 1 1
v 0.2 0.306066 -0.106066 1 1 1
v -0.15 0.3 -0.1732051 1 1 1
v -0.15 0.3732051 -0.1 1 1 1
v -0.15 0.4 0 1 1 1
v -0.15 0.3732051 0.1 1 1 1
v -0.15 0.3 0.1732051 1 1 1
v 0.2 0.2 0.15 1 1 1
v 0.25 0.2 0.15 1 1 1
v 0.15 0.3 -0.1732051 1 1 1
v 0.15 0.3732051 -0.1 1 1 1
v 0.15 0.4 0 1 1 1
v 0.15 0.3732051 0.1 1 1 1
v 0.15 0.3 0.1732051 1 1 1
v 0.2 0.2 -0.15 1 1 1
v 0.15 0.2 -0.2 1 1 1
v 0.2 0.2 0.1500001 1 1 1
v 0.15 0.2 0.2 1 1 1
v -0.15 0.2 -0.2 1 1 1
v 0.05 0.2 0.2 1 1 1
v -0.05 0.2 0.2 1 1 1
v -0.15 0.2 0.2 1 1 1
v -0.2 0.2 -0.15 1 1 1
v -0.2 0.2 0.1500001 1 1 1

vn 0 0.258819 0.9659258
vn 0 0.5 0.8660254
vn 0 0.8660254 0.5
vn 0.6401844 0.7682213 0
vn 0.7071068 0.7071068 0
vn 0.7071068 -0.7071068 0
vn -0.7071068 -0.7071068 0
vn -0.7071068 0.7071068 0
vn -0.6401844 0.7682213 0
vn 0 0.258819 -0.9659258
vn 0 0.5 -0.8660254
vn 0 -0.3826834 -0.9238795
vn 0 -0.7071068 -0.7071068
vn 0 0.8660254 -0.5
vn 0 -0.7071068 0.7071068
vn 0 -0.3826834 0.9238795

vt 0.09375 0.125
vt 0.09375 0.2116025
vt 0.09375 0.1674264
vt 0.09375 0.225
vt 0.09375 0.185
vt 0.09375 0.145
vt 0.09375 0.165
vt 0.09375 0.194282
vt 0.09375 0.205
vt 0.21875 0.125
vt 0.21875 0.165
vt 0.21875 0.145
vt 0.21875 0.194282
vt 0.21875 0.205
vt 0.21875 0.1674264
vt 0.21875 0.185
vt 0.84375 0.225
vt 0.84375 0.025
vt 0.84375 0.09166666
vt 0.84375 0.1583333

usemtl colormap

f 44/8/4 49/4/4 41/8/4
f 49/4/4 44/8/4 50/9/4
f 50/9/4 44/8/4 51/10/4
f 50/9/4 51/10/4 52/11/4
f 52/11/4 51/10/4 53/12/4
f 52/11/4 53/12/4 54/10/4
f 52/11/4 54/10/4 55/9/4
f 55/9/4 54/10/4 56/8/4
f 55/9/4 56/8/4 57/4/4
f 57/4/4 56/8/4 58/8/4
f 61/4/8 60/8/7 59/8/7
f 60/8/7 61/4/8 62/4/8
f 52/11/3 64/9/9 63/11/3
f 64/9/9 52/11/3 55/9/9
f 66/4/8 58/8/7 65/8/7
f 58/8/7 66/4/8 57/4/8
f 69/13/11 68/8/2 67/13/10
f 68/8/2 69/13/11 70/8/12
f 70/8/12 69/13/11 71/8/12
f 74/8/13 73/8/4 72/8/13
f 75/13/14 73/8/4 74/8/13
f 73/8/4 75/13/14 76/13/15
f 79/11/3 78/9/9 77/11/3
f 78/9/9 79/11/3 80/9/9
f 78/9/9 62/4/8 61/4/8
f 62/4/8 78/9/9 80/9/9
f 81/4/17 40/8/16 39/8/16
f 40/8/16 81/4/17 82/4/17
f 54/10/19 83/8/18 56/8/18
f 83/8/18 54/10/19 84/10/19
f 69/13/1 74/8/1 71/8/1
f 74/8/1 69/13/1 75/13/1
f 73/8/5 70/8/5 72/8/5
f 70/8/5 73/8/5 68/8/5
f 50/9/20 63/11/3 85/9/20
f 63/11/3 50/9/20 52/11/3
f 76/13/15 69/13/11 67/13/10
f 69/13/11 76/13/15 75/13/14
f 87/12/6 51/10/21 86/10/21
f 51/10/21 87/12/6 53/12/6
f 89/9/20 77/11/3 88/9/20
f 77/11/3 89/9/20 79/11/3
f 50/9/20 90/4/17 49/4/17
f 90/4/17 50/9/20 85/9/20
f 93/10/19 92/12/6 91/12/6
f 92/12/6 93/10/19 94/10/19
f 95/10/21 43/8/22 42/8/22
f 43/8/22 95/10/21 96/10/21
f 91/12/6 96/10/21 95/10/21
f 96/10/21 91/12/6 92/12/6
f 71/8/12 72/8/13 70/8/12
f 72/8/13 71/8/12 74/8/13
f 90/4/2 36/8/2 35/8/2
f 36/8/2 90/4/2 97/14/2
f 97/14/2 90/4/2 85/9/2
f 97/14/2 85/9/2 98/15/2
f 98/15/2 85/9/2 63/11/2
f 98/15/2 63/11/2 99/16/2
f 99/16/2 63/11/2 64/9/2
f 99/16/2 64/9/2 100/15/2
f 100/15/2 64/9/2 101/14/2
f 101/14/2 64/9/2 66/4/2
f 101/14/2 66/4/2 37/8/2
f 37/8/2 66/4/2 65/8/2
f 64/9/9 57/4/8 66/4/8
f 57/4/8 64/9/9 55/9/9
f 49/4/17 35/8/16 41/8/16
f 35/8/16 49/4/17 90/4/17
f 94/10/19 103/8/18 102/8/18
f 103/8/18 94/10/19 93/10/19
f 48/8/4 81/4/4 39/8/4
f 81/4/4 48/8/4 104/14/4
f 81/4/4 104/14/4 89/9/4
f 89/9/4 104/14/4 105/15/4
f 89/9/4 105/15/4 79/11/4
f 79/11/4 105/15/4 106/16/4
f 79/11/4 106/16/4 107/15/4
f 79/11/4 107/15/4 80/9/4
f 80/9/4 107/15/4 108/14/4
f 80/9/4 108/14/4 62/4/4
f 62/4/4 108/14/4 46/8/4
f 62/4/4 46/8/4 60/8/4
f 82/4/2 42/8/2 40/8/2
f 42/8/2 82/4/2 88/9/2
f 42/8/2 88/9/2 95/10/2
f 95/10/2 88/9/2 77/11/2
f 95/10/2 77/11/2 91/12/2
f 91/12/2 77/11/2 93/10/2
f 93/10/2 77/11/2 78/9/2
f 93/10/2 78/9/2 103/8/2
f 103/8/2 78/9/2 61/4/2
f 103/8/2 61/4/2 59/8/2
f 84/10/19 53/12/6 87/12/6
f 53/12/6 84/10/19 54/10/19
f 86/10/21 44/8/22 45/8/22
f 44/8/22 86/10/21 51/10/21
f 89/9/20 82/4/17 81/4/17
f 82/4/17 89/9/20 88/9/20
f 65/8/6 83/8/6 37/8/6
f 83/8/6 65/8/6 58/8/6
f 83/8/6 58/8/6 56/8/6
f 36/8/6 41/8/6 35/8/6
f 41/8/6 36/8/6 45/8/6
f 41/8/6 45/8/6 44/8/6
f 42/8/6 39/8/6 40/8/6
f 39/8/6 42/8/6 43/8/6
f 39/8/6 43/8/6 48/8/6
f 59/8/6 102/8/6 103/8/6
f 102/8/6 59/8/6 60/8/6
f 102/8/6 60/8/6 46/8/6
f 36/17/16 104/18/17 48/17/16
f 104/18/17 36/17/16 97/18/17
f 108/18/8 68/17/7 46/17/7
f 68/17/7 108/18/8 67/19/7
f 67/19/7 108/18/8 76/19/7
f 101/18/8 76/19/7 108/18/8
f 37/17/7 76/19/7 101/18/8
f 76/19/7 37/17/7 73/17/7
f 98/20/20 106/21/3 105/20/20
f 106/21/3 98/20/20 99/21/3
f 99/21/3 107/20/9 106/21/3
f 107/20/9 99/21/3 100/20/9
f 107/20/9 101/18/8 108/18/8
f 101/18/8 107/20/9 100/20/9
f 97/18/17 105/20/20 104/18/17
f 105/20/20 97/18/17 98/20/20
f 96/22/2 102/17/2 43/17/2
f 102/17/2 96/22/2 92/23/2
f 102/17/2 92/23/2 94/22/2
f 83/17/4 86/22/4 45/17/4
f 86/22/4 83/17/4 87/23/4
f 87/23/4 83/17/4 84/22/4
f 111/24/6 110/25/6 109/24/6
f 110/25/6 111/24/6 112/25/6
f 110/25/6 112/25/6 113/24/6
f 113/24/6 112/25/6 114/26/6
f 113/24/6 114/26/6 115/27/6
f 113/24/6 115/27/6 116/24/6
f 113/24/6 116/24/6 117/24/6
f 117/24/6 116/24/6 118/24/6

