# Created by Kenney (www.kenney.nl)

mtllib coffin.mtl

g coffin

v 0.220247 0.0352 -0.009771725 1 1 1
v 0.190973 0.0352 -0.01633473 1 1 1
v 0.220247 0.1865 -0.009771725 1 1 1
v 0.190973 0.1865 -0.01633473 1 1 1
v 0.273125 0.1865 -0.2456257 1 1 1
v 0.266399 0.1865 -0.2156257 1 1 1
v 0.252947 0.1865 -0.2756257 1 1 1
v 0.236399 0.1865 -0.2156257 1 1 1
v 0.236399 0.1865 -0.2756257 1 1 1
v 0.097021 0.0352 -0.4782457 1 1 1
v 0.097021 0.1865 -0.4782457 1 1 1
v 0.097021 0.0352 -0.4182457 1 1 1
v 0.097021 0.1865 -0.4182457 1 1 1
v 0.236399 0.0352 -0.2756257 1 1 1
v 0.252947 0.0352 -0.2756257 1 1 1
v -0.236399 0.1865 -0.2756257 1 1 1
v -0.236399 0.0352 -0.2756257 1 1 1
v -0.236399 0.1865 -0.2156257 1 1 1
v -0.236399 0.0352 -0.2156257 1 1 1
v -0.266399 0.0352 -0.2156257 1 1 1
v -0.266399 0.1865 -0.2156257 1 1 1
v 0.266399 0.0352 -0.2156257 1 1 1
v 0.236399 0.0352 -0.2156257 1 1 1
v 0.237748 0.1865 -0.08783372 1 1 1
v 0.208475 0.1865 -0.09439673 1 1 1
v 0.208475 0.0352 -0.09439673 1 1 1
v 0.237748 0.0352 -0.08783372 1 1 1
v -0.252947 0.1865 -0.2756257 1 1 1
v -0.273125 0.1865 -0.2456257 1 1 1
v -0.252947 0.0352 -0.2756257 1 1 1
v -0.237748 0.0352 -0.08783372 1 1 1
v -0.208475 0.0352 -0.09439673 1 1 1
v -0.237748 0.1865 -0.08783372 1 1 1
v -0.208475 0.1865 -0.09439673 1 1 1
v 0.055532 0.0352 0.4544553 1 1 1
v 0.055532 0.1865 0.4544553 1 1 1
v 0.055532 0.0352 0.4782463 1 1 1
v 0.055532 0.1865 0.4782463 1 1 1
v 0.116167 0.0352 0.4544553 1 1 1
v 0.116167 0.1865 0.4544553 1 1 1
v 0.110833 0.1865 0.4782463 1 1 1
v -0.190973 0.0352 -0.01633473 1 1 1
v -0.220247 0.0352 -0.009771725 1 1 1
v -0.190973 0.1865 -0.01633473 1 1 1
v -0.220247 0.1865 -0.009771725 1 1 1
v -0.093795 0.1865 -0.4782457 1 1 1
v -0.093795 0.0352 -0.4782457 1 1 1
v -0.093795 0.1865 -0.4230417 1 1 1
v -0.093795 0.0352 -0.4230417 1 1 1
v -0.055532 0.1865 0.4544553 1 1 1
v -0.055532 0.1865 0.4782463 1 1 1
v -0.116167 0.1865 0.4544553 1 1 1
v -0.110833 0.1865 0.4782463 1 1 1
v -0.055532 0.0352 0.4544553 1 1 1
v -0.055532 0.0352 0.4782463 1 1 1
v 0.157021 0.1865 -0.4182457 1 1 1
v 0.116665 0.1865 -0.4782457 1 1 1
v -0.116167 0.0352 0.4544553 1 1 1
v -0.116665 0.1865 -0.4782457 1 1 1
v -0.153795 0.1865 -0.4230417 1 1 1
v 0.157021 0.0352 -0.4182457 1 1 1
v -0.153795 0.0352 -0.4230417 1 1 1
v -0.12825 0 -0.4999997 1 1 1
v -0.12825 0.2052 -0.4999997 1 1 1
v -0.2964 0 -0.2499997 1 1 1
v -0.2964 0.2052 -0.2499997 1 1 1
v 0.12825 0.2052 -0.4999997 1 1 1
v 0.12825 0 -0.4999997 1 1 1
v 0.2964 0.2052 -0.2499997 1 1 1
v 0.2964 0 -0.2499997 1 1 1
v 0.12825 0.2052 0.5000003 1 1 1
v 0.12825 0 0.5000003 1 1 1
v -0.273125 0.2052 -0.2456257 1 1 1
v -0.110833 0.2052 0.4782463 1 1 1
v 0.110833 0.2052 0.4782463 1 1 1
v 0.273125 0.2052 -0.2456257 1 1 1
v -0.12825 0 0.5000003 1 1 1
v -0.12825 0.2052 0.5000003 1 1 1
v 0.116665 0.2052 -0.4782457 1 1 1
v -0.116665 0.2052 -0.4782457 1 1 1

vn -0.2187618 0 0.9757783
vn 0 1 0
vn -1 0 0
vn 0 0 -1
vn 1 0 0
vn 0 0 1
vn 0.2187689 0 -0.9757767
vn -0.2187689 0 -0.9757767
vn 0.2187618 0 0.9757783
vn 0.9757754 0 -0.2187751
vn -0.9757754 0 -0.2187751
vn 0.2187618 0 -0.9757783
vn 0 -1 0
vn -0.8297711 0 -0.558104
vn 0.8297711 0 0.558104
vn 0.8297711 0 -0.558104
vn -0.8297711 0 0.558104
vn 0.9757766 0 0.2187691
vn -0.9757766 0 -0.2187691
vn -0.2187689 0 0.9757767
vn 0.9757767 -3.703253E-07 -0.218769
vn -0.9757767 3.703253E-07 0.218769
vn -0.9757767 -3.703253E-07 -0.218769
vn 0.9757767 3.703253E-07 0.218769
vn 0.2187689 0 0.9757767
vn -0.2187618 0 -0.9757783
vn -0.9757754 0 0.2187751
vn 0.9757754 0 0.2187751
vn -0.9757766 0 0.2187691
vn 0.9757766 0 -0.2187691
vn -0.8297714 0 0.5581034
vn 0.8297714 0 -0.5581034
vn 0.8297712 3.619659E-07 0.5581036
vn -0.8297712 -3.619659E-07 -0.5581036

vt 0.21875 0.309308
vt 0.21875 0.4567739
vt 0.09375 0.4567739
vt 0.09375 0.309308
vt 0.09375 0.275
vt 0.09375 0.475

usemtl colormap

f 3/2/1 2/1/1 1/1/1
f 2/1/1 3/2/1 4/2/1
f 7/2/2 6/2/2 5/2/2
f 6/2/2 7/2/2 8/2/2
f 8/2/2 7/2/2 9/2/2
f 12/1/3 11/2/3 10/1/3
f 11/2/3 12/1/3 13/2/3
f 9/2/4 15/1/4 14/1/4
f 15/1/4 9/2/4 7/2/4
f 18/2/5 17/1/5 16/2/5
f 17/1/5 18/2/5 19/1/5
f 18/2/6 20/1/6 19/1/6
f 20/1/6 18/2/6 21/2/6
f 6/2/6 23/1/6 22/1/6
f 23/1/6 6/2/6 8/2/6
f 25/2/2 3/2/2 24/2/2
f 3/2/2 25/2/2 4/2/2
f 25/2/7 27/1/7 26/1/7
f 27/1/7 25/2/7 24/2/7
f 28/2/2 18/2/2 16/2/2
f 18/2/2 28/2/2 21/2/2
f 21/2/2 28/2/2 29/2/2
f 23/1/3 9/2/3 14/1/3
f 9/2/3 23/1/3 8/2/3
f 28/2/4 17/1/4 30/1/4
f 17/1/4 28/2/4 16/2/4
f 33/2/8 32/1/8 31/1/8
f 32/1/8 33/2/8 34/2/8
f 37/1/3 36/2/3 35/1/3
f 36/2/3 37/1/3 38/2/3
f 36/2/4 39/1/4 35/1/4
f 39/1/4 36/2/4 40/2/4
f 36/2/2 41/2/2 40/2/2
f 41/2/2 36/2/2 38/2/2
f 44/2/9 43/1/9 42/1/9
f 43/1/9 44/2/9 45/2/9
f 44/2/10 32/1/10 34/2/10
f 32/1/10 44/2/10 42/1/10
f 48/2/5 47/1/5 46/2/5
f 47/1/5 48/2/5 49/1/5
f 52/2/2 51/2/2 50/2/2
f 51/2/2 52/2/2 53/2/2
f 2/1/11 25/2/11 26/1/11
f 25/2/11 2/1/11 4/2/11
f 51/2/5 54/1/5 50/2/5
f 54/1/5 51/2/5 55/1/5
f 34/2/2 45/2/2 44/2/2
f 45/2/2 34/2/2 33/2/2
f 57/2/2 13/2/2 56/2/2
f 13/2/2 57/2/2 11/2/2
f 52/2/4 54/1/4 58/1/4
f 54/1/4 52/2/4 50/2/4
f 59/2/2 48/2/2 46/2/2
f 48/2/2 59/2/2 60/2/2
f 56/2/6 12/1/6 61/1/6
f 12/1/6 56/2/6 13/2/6
f 48/2/6 62/1/6 49/1/6
f 62/1/6 48/2/6 60/2/6
f 1/4/12 2/4/12 3/3/12
f 4/3/12 3/3/12 2/4/12
f 5/3/13 6/3/13 7/3/13
f 8/3/13 7/3/13 6/3/13
f 9/3/13 7/3/13 8/3/13
f 10/4/5 11/3/5 12/4/5
f 13/3/5 12/4/5 11/3/5
f 65/5/14 64/6/14 63/5/14
f 64/6/14 65/5/14 66/6/14
f 63/5/15 64/6/15 65/5/15
f 66/6/15 65/5/15 64/6/15
f 69/6/16 68/5/16 67/6/16
f 68/5/16 69/6/16 70/5/16
f 67/6/17 68/5/17 69/6/17
f 70/5/17 69/6/17 68/5/17
f 14/4/6 15/4/6 9/3/6
f 7/3/6 9/3/6 15/4/6
f 16/3/3 17/4/3 18/3/3
f 19/4/3 18/3/3 17/4/3
f 19/4/4 20/4/4 18/3/4
f 21/3/4 18/3/4 20/4/4
f 22/4/4 23/4/4 6/3/4
f 8/3/4 6/3/4 23/4/4
f 24/3/13 3/3/13 25/3/13
f 4/3/13 25/3/13 3/3/13
f 71/6/18 70/5/18 69/6/18
f 70/5/18 71/6/18 72/5/18
f 69/6/19 70/5/19 71/6/19
f 72/5/19 71/6/19 70/5/19
f 26/4/20 27/4/20 25/3/20
f 24/3/20 25/3/20 27/4/20
f 16/3/13 18/3/13 28/3/13
f 21/3/13 28/3/13 18/3/13
f 29/3/13 28/3/13 21/3/13
f 14/4/5 9/3/5 23/4/5
f 8/3/5 23/4/5 9/3/5
f 74/6/21 29/3/21 73/6/21
f 29/3/21 74/6/21 21/3/21
f 21/3/21 74/6/21 33/3/21
f 21/3/21 33/3/21 20/4/21
f 31/4/21 20/4/21 33/3/21
f 33/3/21 74/6/21 45/3/21
f 45/3/21 74/6/21 43/4/21
f 43/4/21 74/6/21 52/3/21
f 52/3/21 74/6/21 53/3/21
f 58/4/21 43/4/21 52/3/21
f 73/6/22 29/3/22 74/6/22
f 21/3/22 74/6/22 29/3/22
f 33/3/22 74/6/22 21/3/22
f 20/4/22 33/3/22 21/3/22
f 33/3/22 20/4/22 31/4/22
f 45/3/22 74/6/22 33/3/22
f 43/4/22 74/6/22 45/3/22
f 52/3/22 74/6/22 43/4/22
f 52/3/22 43/4/22 58/4/22
f 53/3/22 74/6/22 52/3/22
f 27/4/23 6/3/23 22/4/23
f 24/3/23 6/3/23 27/4/23
f 75/6/23 6/3/23 24/3/23
f 75/6/23 24/3/23 3/3/23
f 76/6/23 6/3/23 75/6/23
f 6/3/23 76/6/23 5/3/23
f 75/6/23 3/3/23 40/3/23
f 75/6/23 40/3/23 41/3/23
f 40/3/23 3/3/23 39/4/23
f 39/4/23 3/3/23 1/4/23
f 22/4/24 6/3/24 27/4/24
f 27/4/24 6/3/24 24/3/24
f 24/3/24 6/3/24 75/6/24
f 3/3/24 24/3/24 75/6/24
f 75/6/24 6/3/24 76/6/24
f 5/3/24 76/6/24 6/3/24
f 40/3/24 3/3/24 75/6/24
f 41/3/24 40/3/24 75/6/24
f 39/4/24 3/3/24 40/3/24
f 1/4/24 3/3/24 39/4/24
f 30/4/6 17/4/6 28/3/6
f 16/3/6 28/3/6 17/4/6
f 31/4/25 32/4/25 33/3/25
f 34/3/25 33/3/25 32/4/25
f 35/4/5 36/3/5 37/4/5
f 38/3/5 37/4/5 36/3/5
f 71/6/6 77/5/6 72/5/6
f 77/5/6 71/6/6 78/6/6
f 72/5/4 77/5/4 71/6/4
f 78/6/4 71/6/4 77/5/4
f 35/4/6 39/4/6 36/3/6
f 40/3/6 36/3/6 39/4/6
f 64/6/4 68/5/4 63/5/4
f 68/5/4 64/6/4 67/6/4
f 63/5/6 68/5/6 64/6/6
f 67/6/6 64/6/6 68/5/6
f 40/3/13 41/3/13 36/3/13
f 38/3/13 36/3/13 41/3/13
f 42/4/26 43/4/26 44/3/26
f 45/3/26 44/3/26 43/4/26
f 34/3/27 32/4/27 44/3/27
f 42/4/27 44/3/27 32/4/27
f 74/6/4 51/3/4 53/3/4
f 51/3/4 74/6/4 38/3/4
f 38/3/4 74/6/4 41/3/4
f 41/3/4 74/6/4 75/6/4
f 37/4/4 51/3/4 38/3/4
f 51/3/4 37/4/4 55/4/4
f 53/3/6 51/3/6 74/6/6
f 38/3/6 74/6/6 51/3/6
f 38/3/6 51/3/6 37/4/6
f 55/4/6 37/4/6 51/3/6
f 41/3/6 74/6/6 38/3/6
f 75/6/6 74/6/6 41/3/6
f 46/3/3 47/4/3 48/3/3
f 49/4/3 48/3/3 47/4/3
f 79/6/6 11/3/6 57/3/6
f 11/3/6 79/6/6 46/3/6
f 46/3/6 79/6/6 59/3/6
f 59/3/6 79/6/6 80/6/6
f 47/4/6 11/3/6 46/3/6
f 11/3/6 47/4/6 10/4/6
f 57/3/4 11/3/4 79/6/4
f 46/3/4 79/6/4 11/3/4
f 46/3/4 11/3/4 47/4/4
f 10/4/4 47/4/4 11/3/4
f 59/3/4 79/6/4 46/3/4
f 80/6/4 79/6/4 59/3/4
f 50/3/13 51/3/13 52/3/13
f 53/3/13 52/3/13 51/3/13
f 26/4/28 25/3/28 2/4/28
f 4/3/28 2/4/28 25/3/28
f 72/5/13 68/5/13 70/5/13
f 68/5/13 72/5/13 77/5/13
f 68/5/13 77/5/13 63/5/13
f 63/5/13 77/5/13 65/5/13
f 70/5/2 68/5/2 72/5/2
f 77/5/2 72/5/2 68/5/2
f 63/5/2 77/5/2 68/5/2
f 65/5/2 77/5/2 63/5/2
f 77/5/29 66/6/29 65/5/29
f 66/6/29 77/5/29 78/6/29
f 65/5/30 66/6/30 77/5/30
f 78/6/30 77/5/30 66/6/30
f 15/4/31 56/3/31 61/4/31
f 7/3/31 56/3/31 15/4/31
f 76/6/31 56/3/31 7/3/31
f 76/6/31 7/3/31 5/3/31
f 79/6/31 56/3/31 76/6/31
f 56/3/31 79/6/31 57/3/31
f 61/4/32 56/3/32 15/4/32
f 15/4/32 56/3/32 7/3/32
f 7/3/32 56/3/32 76/6/32
f 5/3/32 7/3/32 76/6/32
f 76/6/32 56/3/32 79/6/32
f 57/3/32 79/6/32 56/3/32
f 50/3/3 54/4/3 51/3/3
f 55/4/3 51/3/3 54/4/3
f 44/3/13 45/3/13 34/3/13
f 33/3/13 34/3/13 45/3/13
f 61/4/2 14/4/2 15/4/2
f 14/4/2 61/4/2 23/4/2
f 23/4/2 61/4/2 26/4/2
f 27/4/2 23/4/2 26/4/2
f 23/4/2 27/4/2 22/4/2
f 26/4/2 61/4/2 2/4/2
f 39/4/2 2/4/2 61/4/2
f 2/4/2 39/4/2 1/4/2
f 39/4/2 61/4/2 12/4/2
f 39/4/2 12/4/2 35/4/2
f 12/4/2 47/4/2 35/4/2
f 47/4/2 12/4/2 10/4/2
f 35/4/2 47/4/2 37/4/2
f 37/4/2 47/4/2 54/4/2
f 55/4/2 37/4/2 54/4/2
f 54/4/2 47/4/2 49/4/2
f 54/4/2 49/4/2 58/4/2
f 58/4/2 49/4/2 62/4/2
f 58/4/2 62/4/2 42/4/2
f 58/4/2 42/4/2 43/4/2
f 62/4/2 17/4/2 42/4/2
f 17/4/2 62/4/2 30/4/2
f 42/4/2 17/4/2 32/4/2
f 19/4/2 32/4/2 17/4/2
f 32/4/2 19/4/2 31/4/2
f 31/4/2 19/4/2 20/4/2
f 15/4/13 14/4/13 61/4/13
f 23/4/13 61/4/13 14/4/13
f 26/4/13 61/4/13 23/4/13
f 26/4/13 23/4/13 27/4/13
f 22/4/13 27/4/13 23/4/13
f 2/4/13 61/4/13 26/4/13
f 61/4/13 2/4/13 39/4/13
f 1/4/13 39/4/13 2/4/13
f 12/4/13 61/4/13 39/4/13
f 35/4/13 12/4/13 39/4/13
f 35/4/13 47/4/13 12/4/13
f 10/4/13 12/4/13 47/4/13
f 37/4/13 47/4/13 35/4/13
f 54/4/13 47/4/13 37/4/13
f 54/4/13 37/4/13 55/4/13
f 49/4/13 47/4/13 54/4/13
f 58/4/13 49/4/13 54/4/13
f 62/4/13 49/4/13 58/4/13
f 42/4/13 62/4/13 58/4/13
f 43/4/13 42/4/13 58/4/13
f 42/4/13 17/4/13 62/4/13
f 30/4/13 62/4/13 17/4/13
f 32/4/13 17/4/13 42/4/13
f 17/4/13 32/4/13 19/4/13
f 31/4/13 19/4/13 32/4/13
f 20/4/13 19/4/13 31/4/13
f 56/3/13 13/3/13 57/3/13
f 11/3/13 57/3/13 13/3/13
f 58/4/6 54/4/6 52/3/6
f 50/3/6 52/3/6 54/4/6
f 46/3/13 48/3/13 59/3/13
f 60/3/13 59/3/13 48/3/13
f 73/6/33 59/3/33 80/6/33
f 59/3/33 73/6/33 60/3/33
f 60/3/33 73/6/33 28/3/33
f 28/3/33 73/6/33 29/3/33
f 60/3/33 28/3/33 62/4/33
f 30/4/33 62/4/33 28/3/33
f 80/6/34 59/3/34 73/6/34
f 60/3/34 73/6/34 59/3/34
f 28/3/34 73/6/34 60/3/34
f 29/3/34 73/6/34 28/3/34
f 62/4/34 28/3/34 60/3/34
f 28/3/34 62/4/34 30/4/34
f 61/4/4 12/4/4 56/3/4
f 13/3/4 56/3/4 12/4/4
f 49/4/4 62/4/4 48/3/4
f 60/3/4 48/3/4 62/4/4
f 74/6/13 75/6/13 78/6/13
f 73/6/13 74/6/13 78/6/13
f 78/6/13 75/6/13 71/6/13
f 66/6/13 73/6/13 78/6/13
f 75/6/13 76/6/13 71/6/13
f 69/6/13 71/6/13 76/6/13
f 69/6/13 76/6/13 67/6/13
f 79/6/13 67/6/13 76/6/13
f 66/6/13 64/6/13 73/6/13
f 64/6/13 67/6/13 79/6/13
f 73/6/13 64/6/13 80/6/13
f 80/6/13 64/6/13 79/6/13
f 78/6/2 75/6/2 74/6/2
f 78/6/2 74/6/2 73/6/2
f 71/6/2 75/6/2 78/6/2
f 78/6/2 73/6/2 66/6/2
f 71/6/2 76/6/2 75/6/2
f 76/6/2 71/6/2 69/6/2
f 67/6/2 76/6/2 69/6/2
f 76/6/2 67/6/2 79/6/2
f 73/6/2 64/6/2 66/6/2
f 79/6/2 67/6/2 64/6/2
f 80/6/2 64/6/2 73/6/2
f 79/6/2 64/6/2 80/6/2

g coffin




usemtl colormap

f 3/2/1 2/1/1 1/1/1
f 2/1/1 3/2/1 4/2/1
f 7/2/2 6/2/2 5/2/2
f 6/2/2 7/2/2 8/2/2
f 8/2/2 7/2/2 9/2/2
f 12/1/3 11/2/3 10/1/3
f 11/2/3 12/1/3 13/2/3
f 9/2/4 15/1/4 14/1/4
f 15/1/4 9/2/4 7/2/4
f 18/2/5 17/1/5 16/2/5
f 17/1/5 18/2/5 19/1/5
f 18/2/6 20/1/6 19/1/6
f 20/1/6 18/2/6 21/2/6
f 6/2/6 23/1/6 22/1/6
f 23/1/6 6/2/6 8/2/6
f 25/2/2 3/2/2 24/2/2
f 3/2/2 25/2/2 4/2/2
f 25/2/7 27/1/7 26/1/7
f 27/1/7 25/2/7 24/2/7
f 28/2/2 18/2/2 16/2/2
f 18/2/2 28/2/2 21/2/2
f 21/2/2 28/2/2 29/2/2
f 23/1/3 9/2/3 14/1/3
f 9/2/3 23/1/3 8/2/3
f 28/2/4 17/1/4 30/1/4
f 17/1/4 28/2/4 16/2/4
f 33/2/8 32/1/8 31/1/8
f 32/1/8 33/2/8 34/2/8
f 37/1/3 36/2/3 35/1/3
f 36/2/3 37/1/3 38/2/3
f 36/2/4 39/1/4 35/1/4
f 39/1/4 36/2/4 40/2/4
f 36/2/2 41/2/2 40/2/2
f 41/2/2 36/2/2 38/2/2
f 44/2/9 43/1/9 42/1/9
f 43/1/9 44/2/9 45/2/9
f 44/2/10 32/1/10 34/2/10
f 32/1/10 44/2/10 42/1/10
f 48/2/5 47/1/5 46/2/5
f 47/1/5 48/2/5 49/1/5
f 52/2/2 51/2/2 50/2/2
f 51/2/2 52/2/2 53/2/2
f 2/1/11 25/2/11 26/1/11
f 25/2/11 2/1/11 4/2/11
f 51/2/5 54/1/5 50/2/5
f 54/1/5 51/2/5 55/1/5
f 34/2/2 45/2/2 44/2/2
f 45/2/2 34/2/2 33/2/2
f 57/2/2 13/2/2 56/2/2
f 13/2/2 57/2/2 11/2/2
f 52/2/4 54/1/4 58/1/4
f 54/1/4 52/2/4 50/2/4
f 59/2/2 48/2/2 46/2/2
f 48/2/2 59/2/2 60/2/2
f 56/2/6 12/1/6 61/1/6
f 12/1/6 56/2/6 13/2/6
f 48/2/6 62/1/6 49/1/6
f 62/1/6 48/2/6 60/2/6
f 1/4/12 2/4/12 3/3/12
f 4/3/12 3/3/12 2/4/12
f 5/3/13 6/3/13 7/3/13
f 8/3/13 7/3/13 6/3/13
f 9/3/13 7/3/13 8/3/13
f 10/4/5 11/3/5 12/4/5
f 13/3/5 12/4/5 11/3/5
f 65/5/14 64/6/14 63/5/14
f 64/6/14 65/5/14 66/6/14
f 63/5/15 64/6/15 65/5/15
f 66/6/15 65/5/15 64/6/15
f 69/6/16 68/5/16 67/6/16
f 68/5/16 69/6/16 70/5/16
f 67/6/17 68/5/17 69/6/17
f 70/5/17 69/6/17 68/5/17
f 14/4/6 15/4/6 9/3/6
f 7/3/6 9/3/6 15/4/6
f 16/3/3 17/4/3 18/3/3
f 19/4/3 18/3/3 17/4/3
f 19/4/4 20/4/4 18/3/4
f 21/3/4 18/3/4 20/4/4
f 22/4/4 23/4/4 6/3/4
f 8/3/4 6/3/4 23/4/4
f 24/3/13 3/3/13 25/3/13
f 4/3/13 25/3/13 3/3/13
f 71/6/18 70/5/18 69/6/18
f 70/5/18 71/6/18 72/5/18
f 69/6/19 70/5/19 71/6/19
f 72/5/19 71/6/19 70/5/19
f 26/4/20 27/4/20 25/3/20
f 24/3/20 25/3/20 27/4/20
f 16/3/13 18/3/13 28/3/13
f 21/3/13 28/3/13 18/3/13
f 29/3/13 28/3/13 21/3/13
f 14/4/5 9/3/5 23/4/5
f 8/3/5 23/4/5 9/3/5
f 74/6/21 29/3/21 73/6/21
f 29/3/21 74/6/21 21/3/21
f 21/3/21 74/6/21 33/3/21
f 21/3/21 33/3/21 20/4/21
f 31/4/21 20/4/21 33/3/21
f 33/3/21 74/6/21 45/3/21
f 45/3/21 74/6/21 43/4/21
f 43/4/21 74/6/21 52/3/21
f 52/3/21 74/6/21 53/3/21
f 58/4/21 43/4/21 52/3/21
f 73/6/22 29/3/22 74/6/22
f 21/3/22 74/6/22 29/3/22
f 33/3/22 74/6/22 21/3/22
f 20/4/22 33/3/22 21/3/22
f 33/3/22 20/4/22 31/4/22
f 45/3/22 74/6/22 33/3/22
f 43/4/22 74/6/22 45/3/22
f 52/3/22 74/6/22 43/4/22
f 52/3/22 43/4/22 58/4/22
f 53/3/22 74/6/22 52/3/22
f 27/4/23 6/3/23 22/4/23
f 24/3/23 6/3/23 27/4/23
f 75/6/23 6/3/23 24/3/23
f 75/6/23 24/3/23 3/3/23
f 76/6/23 6/3/23 75/6/23
f 6/3/23 76/6/23 5/3/23
f 75/6/23 3/3/23 40/3/23
f 75/6/23 40/3/23 41/3/23
f 40/3/23 3/3/23 39/4/23
f 39/4/23 3/3/23 1/4/23
f 22/4/24 6/3/24 27/4/24
f 27/4/24 6/3/24 24/3/24
f 24/3/24 6/3/24 75/6/24
f 3/3/24 24/3/24 75/6/24
f 75/6/24 6/3/24 76/6/24
f 5/3/24 76/6/24 6/3/24
f 40/3/24 3/3/24 75/6/24
f 41/3/24 40/3/24 75/6/24
f 39/4/24 3/3/24 40/3/24
f 1/4/24 3/3/24 39/4/24
f 30/4/6 17/4/6 28/3/6
f 16/3/6 28/3/6 17/4/6
f 31/4/25 32/4/25 33/3/25
f 34/3/25 33/3/25 32/4/25
f 35/4/5 36/3/5 37/4/5
f 38/3/5 37/4/5 36/3/5
f 71/6/6 77/5/6 72/5/6
f 77/5/6 71/6/6 78/6/6
f 72/5/4 77/5/4 71/6/4
f 78/6/4 71/6/4 77/5/4
f 35/4/6 39/4/6 36/3/6
f 40/3/6 36/3/6 39/4/6
f 64/6/4 68/5/4 63/5/4
f 68/5/4 64/6/4 67/6/4
f 63/5/6 68/5/6 64/6/6
f 67/6/6 64/6/6 68/5/6
f 40/3/13 41/3/13 36/3/13
f 38/3/13 36/3/13 41/3/13
f 42/4/26 43/4/26 44/3/26
f 45/3/26 44/3/26 43/4/26
f 34/3/27 32/4/27 44/3/27
f 42/4/27 44/3/27 32/4/27
f 74/6/4 51/3/4 53/3/4
f 51/3/4 74/6/4 38/3/4
f 38/3/4 74/6/4 41/3/4
f 41/3/4 74/6/4 75/6/4
f 37/4/4 51/3/4 38/3/4
f 51/3/4 37/4/4 55/4/4
f 53/3/6 51/3/6 74/6/6
f 38/3/6 74/6/6 51/3/6
f 38/3/6 51/3/6 37/4/6
f 55/4/6 37/4/6 51/3/6
f 41/3/6 74/6/6 38/3/6
f 75/6/6 74/6/6 41/3/6
f 46/3/3 47/4/3 48/3/3
f 49/4/3 48/3/3 47/4/3
f 79/6/6 11/3/6 57/3/6
f 11/3/6 79/6/6 46/3/6
f 46/3/6 79/6/6 59/3/6
f 59/3/6 79/6/6 80/6/6
f 47/4/6 11/3/6 46/3/6
f 11/3/6 47/4/6 10/4/6
f 57/3/4 11/3/4 79/6/4
f 46/3/4 79/6/4 11/3/4
f 46/3/4 11/3/4 47/4/4
f 10/4/4 47/4/4 11/3/4
f 59/3/4 79/6/4 46/3/4
f 80/6/4 79/6/4 59/3/4
f 50/3/13 51/3/13 52/3/13
f 53/3/13 52/3/13 51/3/13
f 26/4/28 25/3/28 2/4/28
f 4/3/28 2/4/28 25/3/28
f 72/5/13 68/5/13 70/5/13
f 68/5/13 72/5/13 77/5/13
f 68/5/13 77/5/13 63/5/13
f 63/5/13 77/5/13 65/5/13
f 70/5/2 68/5/2 72/5/2
f 77/5/2 72/5/2 68/5/2
f 63/5/2 77/5/2 68/5/2
f 65/5/2 77/5/2 63/5/2
f 77/5/29 66/6/29 65/5/29
f 66/6/29 77/5/29 78/6/29
f 65/5/30 66/6/30 77/5/30
f 78/6/30 77/5/30 66/6/30
f 15/4/31 56/3/31 61/4/31
f 7/3/31 56/3/31 15/4/31
f 76/6/31 56/3/31 7/3/31
f 76/6/31 7/3/31 5/3/31
f 79/6/31 56/3/31 76/6/31
f 56/3/31 79/6/31 57/3/31
f 61/4/32 56/3/32 15/4/32
f 15/4/32 56/3/32 7/3/32
f 7/3/32 56/3/32 76/6/32
f 5/3/32 7/3/32 76/6/32
f 76/6/32 56/3/32 79/6/32
f 57/3/32 79/6/32 56/3/32
f 50/3/3 54/4/3 51/3/3
f 55/4/3 51/3/3 54/4/3
f 44/3/13 45/3/13 34/3/13
f 33/3/13 34/3/13 45/3/13
f 61/4/2 14/4/2 15/4/2
f 14/4/2 61/4/2 23/4/2
f 23/4/2 61/4/2 26/4/2
f 27/4/2 23/4/2 26/4/2
f 23/4/2 27/4/2 22/4/2
f 26/4/2 61/4/2 2/4/2
f 39/4/2 2/4/2 61/4/2
f 2/4/2 39/4/2 1/4/2
f 39/4/2 61/4/2 12/4/2
f 39/4/2 12/4/2 35/4/2
f 12/4/2 47/4/2 35/4/2
f 47/4/2 12/4/2 10/4/2
f 35/4/2 47/4/2 37/4/2
f 37/4/2 47/4/2 54/4/2
f 55/4/2 37/4/2 54/4/2
f 54/4/2 47/4/2 49/4/2
f 54/4/2 49/4/2 58/4/2
f 58/4/2 49/4/2 62/4/2
f 58/4/2 62/4/2 42/4/2
f 58/4/2 42/4/2 43/4/2
f 62/4/2 17/4/2 42/4/2
f 17/4/2 62/4/2 30/4/2
f 42/4/2 17/4/2 32/4/2
f 19/4/2 32/4/2 17/4/2
f 32/4/2 19/4/2 31/4/2
f 31/4/2 19/4/2 20/4/2
f 15/4/13 14/4/13 61/4/13
f 23/4/13 61/4/13 14/4/13
f 26/4/13 61/4/13 23/4/13
f 26/4/13 23/4/13 27/4/13
f 22/4/13 27/4/13 23/4/13
f 2/4/13 61/4/13 26/4/13
f 61/4/13 2/4/13 39/4/13
f 1/4/13 39/4/13 2/4/13
f 12/4/13 61/4/13 39/4/13
f 35/4/13 12/4/13 39/4/13
f 35/4/13 47/4/13 12/4/13
f 10/4/13 12/4/13 47/4/13
f 37/4/13 47/4/13 35/4/13
f 54/4/13 47/4/13 37/4/13
f 54/4/13 37/4/13 55/4/13
f 49/4/13 47/4/13 54/4/13
f 58/4/13 49/4/13 54/4/13
f 62/4/13 49/4/13 58/4/13
f 42/4/13 62/4/13 58/4/13
f 43/4/13 42/4/13 58/4/13
f 42/4/13 17/4/13 62/4/13
f 30/4/13 62/4/13 17/4/13
f 32/4/13 17/4/13 42/4/13
f 17/4/13 32/4/13 19/4/13
f 31/4/13 19/4/13 32/4/13
f 20/4/13 19/4/13 31/4/13
f 56/3/13 13/3/13 57/3/13
f 11/3/13 57/3/13 13/3/13
f 58/4/6 54/4/6 52/3/6
f 50/3/6 52/3/6 54/4/6
f 46/3/13 48/3/13 59/3/13
f 60/3/13 59/3/13 48/3/13
f 73/6/33 59/3/33 80/6/33
f 59/3/33 73/6/33 60/3/33
f 60/3/33 73/6/33 28/3/33
f 28/3/33 73/6/33 29/3/33
f 60/3/33 28/3/33 62/4/33
f 30/4/33 62/4/33 28/3/33
f 80/6/34 59/3/34 73/6/34
f 60/3/34 73/6/34 59/3/34
f 28/3/34 73/6/34 60/3/34
f 29/3/34 73/6/34 28/3/34
f 62/4/34 28/3/34 60/3/34
f 28/3/34 62/4/34 30/4/34
f 61/4/4 12/4/4 56/3/4
f 13/3/4 56/3/4 12/4/4
f 49/4/4 62/4/4 48/3/4
f 60/3/4 48/3/4 62/4/4
f 74/6/13 75/6/13 78/6/13
f 73/6/13 74/6/13 78/6/13
f 78/6/13 75/6/13 71/6/13
f 66/6/13 73/6/13 78/6/13
f 75/6/13 76/6/13 71/6/13
f 69/6/13 71/6/13 76/6/13
f 69/6/13 76/6/13 67/6/13
f 79/6/13 67/6/13 76/6/13
f 66/6/13 64/6/13 73/6/13
f 64/6/13 67/6/13 79/6/13
f 73/6/13 64/6/13 80/6/13
f 80/6/13 64/6/13 79/6/13
f 78/6/2 75/6/2 74/6/2
f 78/6/2 74/6/2 73/6/2
f 71/6/2 75/6/2 78/6/2
f 78/6/2 73/6/2 66/6/2
f 71/6/2 76/6/2 75/6/2
f 76/6/2 71/6/2 69/6/2
f 67/6/2 76/6/2 69/6/2
f 76/6/2 67/6/2 79/6/2
f 73/6/2 64/6/2 66/6/2
f 79/6/2 67/6/2 64/6/2
f 80/6/2 64/6/2 73/6/2
f 79/6/2 64/6/2 80/6/2

g lid

v 0.2964 0.244188 -0.2500001 1 1 1
v 0.2964 0.2052 -0.2500001 1 1 1
v 0.12825 0.244188 0.5000003 1 1 1
v -0.12825 0.244188 0.5000003 1 1 1
v -0.12825 0.2052 -0.5000003 1 1 1
v -0.12825 0.244188 -0.5000003 1 1 1
v -0.2964 0.2052 -0.2500001 1 1 1
v -0.2964 0.244188 -0.2500001 1 1 1
v 0.12825 0.244188 -0.5000003 1 1 1
v 0.12825 0.2052 -0.5000003 1 1 1
v 0.2823626 0.274188 -0.2500001 1 1 1
v 0.25569 0.274188 -0.1310324 1 1 1
v -0.2823626 0.274188 -0.2500001 1 1 1
v -0.25569 0.274188 -0.1310324 1 1 1
v 0.25569 0.244188 -0.1310324 1 1 1
v -0.25569 0.244188 -0.1310324 1 1 1
v -0.2823626 0.244188 -0.2500001 1 1 1
v 0.2823626 0.244188 -0.2500001 1 1 1
v 0.1820745 0.274188 0.1973157 1 1 1
v 0.1565402 0.274188 0.3112065 1 1 1
v -0.1820745 0.274188 0.1973157 1 1 1
v -0.1565402 0.274188 0.3112065 1 1 1
v -0.1820745 0.244188 0.1973157 1 1 1
v 0.1820745 0.244188 0.1973157 1 1 1
v 0.1565402 0.244188 0.3112065 1 1 1
v -0.1565402 0.244188 0.3112065 1 1 1

vn 0.5558152 0 0.1281517
vn 0 0 0.578035
vn -0.470892 0 -0.325714
vn 0.470892 0 -0.325714
vn 0 0 -0.578035
vn 0 -0.1083 0
vn 0 0.1083 0
vn -0.5558152 0 0.1281517
vn 0.5558152 0 0.1281516
vn -0.5558152 0 0.1281516
vn 0.5558152 0 0.1281518
vn -0.5558152 0 0.1281518

vt 0.09375 0.3880284

usemtl colormap

f 83/7/35 82/5/35 81/7/35
f 82/5/35 83/7/35 71/5/35
f 83/7/36 78/5/36 71/5/36
f 78/5/36 83/7/36 84/7/36
f 87/5/37 86/7/37 85/5/37
f 86/7/37 87/5/37 88/7/37
f 81/7/38 90/5/38 89/7/38
f 90/5/38 81/7/38 82/5/38
f 86/7/39 90/5/39 85/5/39
f 90/5/39 86/7/39 89/7/39
f 71/5/40 90/5/40 82/5/40
f 90/5/40 71/5/40 78/5/40
f 90/5/40 78/5/40 85/5/40
f 85/5/40 78/5/40 87/5/40
f 93/6/41 92/6/41 91/6/41
f 92/6/41 93/6/41 94/6/41
f 92/6/36 96/7/36 95/7/36
f 96/7/36 92/6/36 94/6/36
f 93/6/39 98/7/39 97/7/39
f 98/7/39 93/6/39 91/6/39
f 101/6/41 100/6/41 99/6/41
f 100/6/41 101/6/41 102/6/41
f 101/6/39 104/7/39 103/7/39
f 104/7/39 101/6/39 99/6/39
f 100/6/36 106/7/36 105/7/36
f 106/7/36 100/6/36 102/6/36
f 78/5/42 88/7/42 87/5/42
f 88/7/42 78/5/42 84/7/42
f 100/6/43 104/7/43 99/6/43
f 104/7/43 100/6/43 105/7/43
f 106/7/44 101/6/44 103/7/44
f 101/6/44 106/7/44 102/6/44
f 92/6/45 98/7/45 91/6/45
f 98/7/45 92/6/45 95/7/45
f 96/7/46 93/6/46 97/7/46
f 93/6/46 96/7/46 94/6/46
f 83/7/41 106/7/41 84/7/41
f 84/7/41 106/7/41 88/7/41
f 83/7/41 105/7/41 106/7/41
f 88/7/41 106/7/41 103/7/41
f 83/7/41 104/7/41 105/7/41
f 104/7/41 96/7/41 103/7/41
f 88/7/41 103/7/41 96/7/41
f 96/7/41 104/7/41 95/7/41
f 83/7/41 95/7/41 104/7/41
f 88/7/41 96/7/41 97/7/41
f 97/7/41 86/7/41 88/7/41
f 97/7/41 89/7/41 86/7/41
f 83/7/41 98/7/41 95/7/41
f 98/7/41 89/7/41 97/7/41
f 98/7/41 83/7/41 81/7/41
f 89/7/41 98/7/41 81/7/41

