# Created by Kenney (www.kenney.nl)

mtllib hay-bale.mtl

g hay-bale

v 0.3 0 0.2 1 1 1
v 0.3 0 -0.2 1 1 1
v -0.3 0 0.2 1 1 1
v -0.3 0 -0.2 1 1 1
v 0.25 0.35 -0.15 1 1 1
v 0.25 0.35 0.15 1 1 1
v -0.25 0.35 -0.15 1 1 1
v -0.25 0.35 0.15 1 1 1
v 0.25 0.05 0.25 1 1 1
v -0.25 0.05 0.25 1 1 1
v 0.25 0.25 0.25 1 1 1
v -0.25 0.25 0.25 1 1 1
v 0.35 0.25 -0.15 1 1 1
v 0.35 0.05 -0.15 1 1 1
v 0.35 0.25 0.15 1 1 1
v 0.35 0.05 0.15 1 1 1
v 0.3 0.3 0.2 1 1 1
v -0.3 0.3 0.2 1 1 1
v 0.3 0.3 -0.2 1 1 1
v -0.3 0.3 -0.2 1 1 1
v -0.35 0.05 -0.15 1 1 1
v -0.35 0.25 -0.15 1 1 1
v -0.35 0.05 0.15 1 1 1
v -0.35 0.25 0.15 1 1 1
v 0.25 0.25 -0.25 1 1 1
v -0.25 0.25 -0.25 1 1 1
v 0.25 0.05 -0.25 1 1 1
v -0.25 0.05 -0.25 1 1 1

vn 0 -1 0
vn 0.3001938 0.9054101 -0.3001938
vn 0.3001938 0.9054101 0.3001938
vn -0.3001938 0.9054101 -0.3001938
vn -0.3001938 0.9054101 0.3001938
vn 0.3001938 -0.3001938 0.9054101
vn -0.3001938 -0.3001938 0.9054101
vn 0.3001938 0.3001938 0.9054101
vn -0.3001938 0.3001938 0.9054101
vn 0.9054101 0.3001938 -0.3001938
vn 0.9054101 -0.3001938 -0.3001938
vn 0.9054101 0.3001938 0.3001938
vn 0.9054101 -0.3001938 0.3001938
vn 0.4082483 -0.4082483 0.8164966
vn -0.4082483 -0.4082483 0.8164966
vn 0.4082483 0.4082483 0.8164966
vn -0.4082483 0.4082483 0.8164966
vn 0.8164966 0.4082483 0.4082483
vn 0.8164966 -0.4082483 0.4082483
vn 0.8164966 -0.4082483 -0.4082483
vn 0.8164966 0.4082483 -0.4082483
vn 0.4082483 0.8164966 0.4082483
vn -0.4082483 0.8164966 0.4082483
vn 0.4082483 0.8164966 -0.4082483
vn -0.4082483 0.8164966 -0.4082483
vn -0.9054101 -0.3001938 -0.3001938
vn -0.9054101 0.3001938 -0.3001938
vn -0.9054101 -0.3001938 0.3001938
vn -0.9054101 0.3001938 0.3001938
vn -0.8164966 -0.4082483 0.4082483
vn -0.8164966 0.4082483 0.4082483
vn -0.8164966 -0.4082483 -0.4082483
vn -0.8164966 0.4082483 -0.4082483
vn 0.4082483 0.4082483 -0.8164966
vn -0.4082483 0.4082483 -0.8164966
vn 0.3001938 0.3001938 -0.9054101
vn -0.3001938 0.3001938 -0.9054101
vn 0.4082483 -0.4082483 -0.8164966
vn 0.3001938 -0.3001938 -0.9054101
vn -0.4082483 -0.4082483 -0.8164966
vn -0.3001938 -0.3001938 -0.9054101

vt 0.34375 0.275
vt 0.34375 0.475
vt 0.34375 0.3035714
vt 0.34375 0.4178571
vt 0.34375 0.4464286

usemtl colormap

f 3/1/1 2/1/1 1/1/1
f 2/1/1 3/1/1 4/1/1
f 7/2/4 6/2/3 5/2/2
f 6/2/3 7/2/4 8/2/5
f 11/4/8 10/3/7 9/3/6
f 10/3/7 11/4/8 12/4/9
f 15/4/12 14/3/11 13/4/10
f 14/3/11 15/4/12 16/3/13
f 9/3/6 3/1/15 1/1/14
f 3/1/15 9/3/6 10/3/7
f 11/4/8 1/1/14 17/5/16
f 1/1/14 11/4/8 9/3/6
f 17/5/16 12/4/9 11/4/8
f 12/4/9 17/5/16 18/5/17
f 10/3/7 18/5/17 3/1/15
f 18/5/17 10/3/7 12/4/9
f 17/5/18 16/3/13 15/4/12
f 16/3/13 17/5/18 1/1/19
f 14/3/11 1/1/19 2/1/20
f 1/1/19 14/3/11 16/3/13
f 13/4/10 2/1/20 19/5/21
f 2/1/20 13/4/10 14/3/11
f 17/5/18 13/4/10 19/5/21
f 13/4/10 17/5/18 15/4/12
f 6/2/3 18/5/23 17/5/22
f 18/5/23 6/2/3 8/2/5
f 5/2/2 17/5/22 19/5/24
f 17/5/22 5/2/2 6/2/3
f 20/5/25 5/2/2 19/5/24
f 5/2/2 20/5/25 7/2/4
f 20/5/25 8/2/5 7/2/4
f 8/2/5 20/5/25 18/5/23
f 23/3/28 22/4/27 21/3/26
f 22/4/27 23/3/28 24/4/29
f 3/1/30 24/4/29 23/3/28
f 24/4/29 3/1/30 18/5/31
f 21/3/26 20/5/33 4/1/32
f 20/5/33 21/3/26 22/4/27
f 22/4/27 18/5/31 20/5/33
f 18/5/31 22/4/27 24/4/29
f 3/1/30 21/3/26 4/1/32
f 21/3/26 3/1/30 23/3/28
f 25/4/36 20/5/35 19/5/34
f 20/5/35 25/4/36 26/4/37
f 4/1/40 27/3/39 2/1/38
f 27/3/39 4/1/40 28/3/41
f 19/5/34 27/3/39 25/4/36
f 27/3/39 19/5/34 2/1/38
f 4/1/40 26/4/37 28/3/41
f 26/4/37 4/1/40 20/5/35
f 26/4/37 27/3/39 28/3/41
f 27/3/39 26/4/37 25/4/36

g hay-bale




usemtl colormap

f 3/1/1 2/1/1 1/1/1
f 2/1/1 3/1/1 4/1/1
f 7/2/4 6/2/3 5/2/2
f 6/2/3 7/2/4 8/2/5
f 11/4/8 10/3/7 9/3/6
f 10/3/7 11/4/8 12/4/9
f 15/4/12 14/3/11 13/4/10
f 14/3/11 15/4/12 16/3/13
f 9/3/6 3/1/15 1/1/14
f 3/1/15 9/3/6 10/3/7
f 11/4/8 1/1/14 17/5/16
f 1/1/14 11/4/8 9/3/6
f 17/5/16 12/4/9 11/4/8
f 12/4/9 17/5/16 18/5/17
f 10/3/7 18/5/17 3/1/15
f 18/5/17 10/3/7 12/4/9
f 17/5/18 16/3/13 15/4/12
f 16/3/13 17/5/18 1/1/19
f 14/3/11 1/1/19 2/1/20
f 1/1/19 14/3/11 16/3/13
f 13/4/10 2/1/20 19/5/21
f 2/1/20 13/4/10 14/3/11
f 17/5/18 13/4/10 19/5/21
f 13/4/10 17/5/18 15/4/12
f 6/2/3 18/5/23 17/5/22
f 18/5/23 6/2/3 8/2/5
f 5/2/2 17/5/22 19/5/24
f 17/5/22 5/2/2 6/2/3
f 20/5/25 5/2/2 19/5/24
f 5/2/2 20/5/25 7/2/4
f 20/5/25 8/2/5 7/2/4
f 8/2/5 20/5/25 18/5/23
f 23/3/28 22/4/27 21/3/26
f 22/4/27 23/3/28 24/4/29
f 3/1/30 24/4/29 23/3/28
f 24/4/29 3/1/30 18/5/31
f 21/3/26 20/5/33 4/1/32
f 20/5/33 21/3/26 22/4/27
f 22/4/27 18/5/31 20/5/33
f 18/5/31 22/4/27 24/4/29
f 3/1/30 21/3/26 4/1/32
f 21/3/26 3/1/30 23/3/28
f 25/4/36 20/5/35 19/5/34
f 20/5/35 25/4/36 26/4/37
f 4/1/40 27/3/39 2/1/38
f 27/3/39 4/1/40 28/3/41
f 19/5/34 27/3/39 25/4/36
f 27/3/39 19/5/34 2/1/38
f 4/1/40 26/4/37 28/3/41
f 26/4/37 4/1/40 20/5/35
f 26/4/37 27/3/39 28/3/41
f 27/3/39 26/4/37 25/4/36

