# Created by Kenney (www.kenney.nl)

mtllib hay-bale-bundled.mtl

g hay-bale-bundled

v 0.3 0 0.2 1 1 1
v 0.3 0 -0.2 1 1 1
v -0.3 0 0.2 1 1 1
v -0.3 0 -0.2 1 1 1
v 0.25 0.35 -0.15 1 1 1
v 0.25 0.35 0.15 1 1 1
v -0.25 0.35 -0.15 1 1 1
v -0.25 0.35 0.15 1 1 1
v 0.25 0.05 0.25 1 1 1
v -0.25 0.05 0.25 1 1 1
v 0.25 0.25 0.25 1 1 1
v -0.25 0.25 0.25 1 1 1
v 0.35 0.25 -0.15 1 1 1
v 0.35 0.05 -0.15 1 1 1
v 0.35 0.25 0.15 1 1 1
v 0.35 0.05 0.15 1 1 1
v 0.3 0.3 0.2 1 1 1
v -0.3 0.3 0.2 1 1 1
v 0.3 0.3 -0.2 1 1 1
v -0.3 0.3 -0.2 1 1 1
v -0.35 0.05 -0.15 1 1 1
v -0.35 0.25 -0.15 1 1 1
v -0.35 0.05 0.15 1 1 1
v -0.35 0.25 0.15 1 1 1
v 0.25 0.25 -0.25 1 1 1
v -0.25 0.25 -0.25 1 1 1
v 0.25 0.05 -0.25 1 1 1
v -0.25 0.05 -0.25 1 1 1
v -0.1 -2.255973E-17 0.21 1 1 1
v -0.2 -2.255973E-17 0.21 1 1 1
v -0.1 0.05 0.26 1 1 1
v -0.2 0.05 0.26 1 1 1
v -0.1 0.26 0.26 1 1 1
v -0.2 0.26 0.26 1 1 1
v -0.1 0.36 0.16 1 1 1
v -0.2 0.36 0.16 1 1 1
v -0.1 0.36 -0.16 1 1 1
v -0.2 0.36 -0.16 1 1 1
v -0.1 0.26 -0.26 1 1 1
v -0.2 0.26 -0.26 1 1 1
v -0.2 0.05 -0.26 1 1 1
v -0.1 0.05 -0.26 1 1 1
v -0.1 1.227249E-14 -0.21 1 1 1
v -0.2 1.227249E-14 -0.21 1 1 1
v -0.1 1.227249E-14 -0.2 1 1 1
v -0.2 6.136247E-15 -0.2 1 1 1
v -0.1 6.113687E-15 0.2 1 1 1
v -0.2 6.113687E-15 0.2 1 1 1
v 0.2 0 0.21 1 1 1
v 0.1 0 0.21 1 1 1
v 0.2 0.05 0.26 1 1 1
v 0.1 0.05 0.26 1 1 1
v 0.2 0.26 0.26 1 1 1
v 0.1 0.26 0.26 1 1 1
v 0.2 0.36 0.16 1 1 1
v 0.1 0.36 0.16 1 1 1
v 0.2 0.36 -0.16 1 1 1
v 0.1 0.36 -0.16 1 1 1
v 0.2 0.26 -0.26 1 1 1
v 0.1 0.26 -0.26 1 1 1
v 0.1 0.05 -0.26 1 1 1
v 0.2 0.05 -0.26 1 1 1
v 0.2 1.229505E-14 -0.21 1 1 1
v 0.1 1.229505E-14 -0.21 1 1 1
v 0.2 1.229505E-14 -0.2 1 1 1
v 0.1 6.158807E-15 -0.2 1 1 1
v 0.2 6.136247E-15 0.2 1 1 1
v 0.1 6.136247E-15 0.2 1 1 1

vn 0 -1 0
vn 0.3001938 0.9054101 -0.3001938
vn 0.3001938 0.9054101 0.3001938
vn -0.3001938 0.9054101 -0.3001938
vn -0.3001938 0.9054101 0.3001938
vn 0.3001938 -0.3001938 0.9054101
vn -0.3001938 -0.3001938 0.9054101
vn 0.3001938 0.3001938 0.9054101
vn -0.3001938 0.3001938 0.9054101
vn 0.9054101 0.3001938 -0.3001938
vn 0.9054101 -0.3001938 -0.3001938
vn 0.9054101 0.3001938 0.3001938
vn 0.9054101 -0.3001938 0.3001938
vn 0.4082483 -0.4082483 0.8164966
vn -0.4082483 -0.4082483 0.8164966
vn 0.4082483 0.4082483 0.8164966
vn -0.4082483 0.4082483 0.8164966
vn 0.8164966 0.4082483 0.4082483
vn 0.8164966 -0.4082483 0.4082483
vn 0.8164966 -0.4082483 -0.4082483
vn 0.8164966 0.4082483 -0.4082483
vn 0.4082483 0.8164966 0.4082483
vn -0.4082483 0.8164966 0.4082483
vn 0.4082483 0.8164966 -0.4082483
vn -0.4082483 0.8164966 -0.4082483
vn -0.9054101 -0.3001938 -0.3001938
vn -0.9054101 0.3001938 -0.3001938
vn -0.9054101 -0.3001938 0.3001938
vn -0.9054101 0.3001938 0.3001938
vn -0.8164966 -0.4082483 0.4082483
vn -0.8164966 0.4082483 0.4082483
vn -0.8164966 -0.4082483 -0.4082483
vn -0.8164966 0.4082483 -0.4082483
vn 0.4082483 0.4082483 -0.8164966
vn -0.4082483 0.4082483 -0.8164966
vn 0.3001938 0.3001938 -0.9054101
vn -0.3001938 0.3001938 -0.9054101
vn 0.4082483 -0.4082483 -0.8164966
vn 0.3001938 -0.3001938 -0.9054101
vn -0.4082483 -0.4082483 -0.8164966
vn -0.3001938 -0.3001938 -0.9054101
vn 0 -0.9238795 0.3826834
vn 0 -0.3826834 0.9238795
vn 0 0.3826834 -0.9238795
vn 0 0.9238795 -0.3826834
vn 0 0.3826834 0.9238795
vn 0 -0.3826834 -0.9238795
vn 0 0.9238795 0.3826834
vn 0 -0.9238795 -0.3826834
vn 0 1 0

vt 0.34375 0.275
vt 0.34375 0.475
vt 0.34375 0.3035714
vt 0.34375 0.4178571
vt 0.34375 0.4464286
vt 0.34375 0.025
vt 0.34375 0.05277778
vt 0.34375 0.1694444
vt 0.34375 0.225

usemtl colormap

f 3/1/1 2/1/1 1/1/1
f 2/1/1 3/1/1 4/1/1
f 7/2/4 6/2/3 5/2/2
f 6/2/3 7/2/4 8/2/5
f 11/4/8 10/3/7 9/3/6
f 10/3/7 11/4/8 12/4/9
f 15/4/12 14/3/11 13/4/10
f 14/3/11 15/4/12 16/3/13
f 9/3/6 3/1/15 1/1/14
f 3/1/15 9/3/6 10/3/7
f 11/4/8 1/1/14 17/5/16
f 1/1/14 11/4/8 9/3/6
f 17/5/16 12/4/9 11/4/8
f 12/4/9 17/5/16 18/5/17
f 10/3/7 18/5/17 3/1/15
f 18/5/17 10/3/7 12/4/9
f 17/5/18 16/3/13 15/4/12
f 16/3/13 17/5/18 1/1/19
f 14/3/11 1/1/19 2/1/20
f 1/1/19 14/3/11 16/3/13
f 13/4/10 2/1/20 19/5/21
f 2/1/20 13/4/10 14/3/11
f 17/5/18 13/4/10 19/5/21
f 13/4/10 17/5/18 15/4/12
f 6/2/3 18/5/23 17/5/22
f 18/5/23 6/2/3 8/2/5
f 5/2/2 17/5/22 19/5/24
f 17/5/22 5/2/2 6/2/3
f 20/5/25 5/2/2 19/5/24
f 5/2/2 20/5/25 7/2/4
f 20/5/25 8/2/5 7/2/4
f 8/2/5 20/5/25 18/5/23
f 23/3/28 22/4/27 21/3/26
f 22/4/27 23/3/28 24/4/29
f 3/1/30 24/4/29 23/3/28
f 24/4/29 3/1/30 18/5/31
f 21/3/26 20/5/33 4/1/32
f 20/5/33 21/3/26 22/4/27
f 22/4/27 18/5/31 20/5/33
f 18/5/31 22/4/27 24/4/29
f 3/1/30 21/3/26 4/1/32
f 21/3/26 3/1/30 23/3/28
f 25/4/36 20/5/35 19/5/34
f 20/5/35 25/4/36 26/4/37
f 4/1/40 27/3/39 2/1/38
f 27/3/39 4/1/40 28/3/41
f 19/5/34 27/3/39 25/4/36
f 27/3/39 19/5/34 2/1/38
f 4/1/40 26/4/37 28/3/41
f 26/4/37 4/1/40 20/5/35
f 26/4/37 27/3/39 28/3/41
f 27/3/39 26/4/37 25/4/36
f 31/7/43 30/6/42 29/6/42
f 30/6/42 31/7/43 32/7/43
f 29/6/45 30/6/45 31/7/44
f 32/7/44 31/7/44 30/6/45
f 33/8/46 32/7/43 31/7/43
f 32/7/43 33/8/46 34/8/46
f 31/7/44 32/7/44 33/8/47
f 34/8/47 33/8/47 32/7/44
f 35/9/48 34/8/46 33/8/46
f 34/8/46 35/9/48 36/9/48
f 33/8/47 34/8/47 35/9/49
f 36/9/49 35/9/49 34/8/47
f 38/9/45 35/9/48 37/9/45
f 35/9/48 38/9/45 36/9/48
f 37/9/42 35/9/49 38/9/42
f 36/9/49 38/9/42 35/9/49
f 40/8/44 37/9/45 39/8/44
f 37/9/45 40/8/44 38/9/45
f 39/8/43 37/9/42 40/8/43
f 38/9/42 40/8/43 37/9/42
f 40/8/44 42/7/47 41/7/47
f 42/7/47 40/8/44 39/8/44
f 41/7/46 42/7/46 40/8/43
f 39/8/43 40/8/43 42/7/46
f 44/6/49 42/7/47 43/6/49
f 42/7/47 44/6/49 41/7/47
f 43/6/48 42/7/46 44/6/48
f 41/7/46 44/6/48 42/7/46
f 46/6/1 43/6/49 45/6/1
f 43/6/49 46/6/1 44/6/49
f 45/6/50 43/6/48 46/6/50
f 44/6/48 46/6/50 43/6/48
f 30/6/42 47/6/1 29/6/42
f 47/6/1 30/6/42 48/6/1
f 29/6/45 47/6/50 30/6/45
f 48/6/50 30/6/45 47/6/50
f 51/7/43 50/6/42 49/6/42
f 50/6/42 51/7/43 52/7/43
f 49/6/45 50/6/45 51/7/44
f 52/7/44 51/7/44 50/6/45
f 53/8/46 52/7/43 51/7/43
f 52/7/43 53/8/46 54/8/46
f 51/7/44 52/7/44 53/8/47
f 54/8/47 53/8/47 52/7/44
f 55/9/48 54/8/46 53/8/46
f 54/8/46 55/9/48 56/9/48
f 53/8/47 54/8/47 55/9/49
f 56/9/49 55/9/49 54/8/47
f 58/9/45 55/9/48 57/9/45
f 55/9/48 58/9/45 56/9/48
f 57/9/42 55/9/49 58/9/42
f 56/9/49 58/9/42 55/9/49
f 60/8/44 57/9/45 59/8/44
f 57/9/45 60/8/44 58/9/45
f 59/8/43 57/9/42 60/8/43
f 58/9/42 60/8/43 57/9/42
f 60/8/44 62/7/47 61/7/47
f 62/7/47 60/8/44 59/8/44
f 61/7/46 62/7/46 60/8/43
f 59/8/43 60/8/43 62/7/46
f 64/6/49 62/7/47 63/6/49
f 62/7/47 64/6/49 61/7/47
f 63/6/48 62/7/46 64/6/48
f 61/7/46 64/6/48 62/7/46
f 66/6/1 63/6/49 65/6/1
f 63/6/49 66/6/1 64/6/49
f 65/6/50 63/6/48 66/6/50
f 64/6/48 66/6/50 63/6/48
f 50/6/42 67/6/1 49/6/42
f 67/6/1 50/6/42 68/6/1
f 49/6/45 67/6/50 50/6/45
f 68/6/50 50/6/45 67/6/50

g hay-bale-bundled




usemtl colormap

f 3/1/1 2/1/1 1/1/1
f 2/1/1 3/1/1 4/1/1
f 7/2/4 6/2/3 5/2/2
f 6/2/3 7/2/4 8/2/5
f 11/4/8 10/3/7 9/3/6
f 10/3/7 11/4/8 12/4/9
f 15/4/12 14/3/11 13/4/10
f 14/3/11 15/4/12 16/3/13
f 9/3/6 3/1/15 1/1/14
f 3/1/15 9/3/6 10/3/7
f 11/4/8 1/1/14 17/5/16
f 1/1/14 11/4/8 9/3/6
f 17/5/16 12/4/9 11/4/8
f 12/4/9 17/5/16 18/5/17
f 10/3/7 18/5/17 3/1/15
f 18/5/17 10/3/7 12/4/9
f 17/5/18 16/3/13 15/4/12
f 16/3/13 17/5/18 1/1/19
f 14/3/11 1/1/19 2/1/20
f 1/1/19 14/3/11 16/3/13
f 13/4/10 2/1/20 19/5/21
f 2/1/20 13/4/10 14/3/11
f 17/5/18 13/4/10 19/5/21
f 13/4/10 17/5/18 15/4/12
f 6/2/3 18/5/23 17/5/22
f 18/5/23 6/2/3 8/2/5
f 5/2/2 17/5/22 19/5/24
f 17/5/22 5/2/2 6/2/3
f 20/5/25 5/2/2 19/5/24
f 5/2/2 20/5/25 7/2/4
f 20/5/25 8/2/5 7/2/4
f 8/2/5 20/5/25 18/5/23
f 23/3/28 22/4/27 21/3/26
f 22/4/27 23/3/28 24/4/29
f 3/1/30 24/4/29 23/3/28
f 24/4/29 3/1/30 18/5/31
f 21/3/26 20/5/33 4/1/32
f 20/5/33 21/3/26 22/4/27
f 22/4/27 18/5/31 20/5/33
f 18/5/31 22/4/27 24/4/29
f 3/1/30 21/3/26 4/1/32
f 21/3/26 3/1/30 23/3/28
f 25/4/36 20/5/35 19/5/34
f 20/5/35 25/4/36 26/4/37
f 4/1/40 27/3/39 2/1/38
f 27/3/39 4/1/40 28/3/41
f 19/5/34 27/3/39 25/4/36
f 27/3/39 19/5/34 2/1/38
f 4/1/40 26/4/37 28/3/41
f 26/4/37 4/1/40 20/5/35
f 26/4/37 27/3/39 28/3/41
f 27/3/39 26/4/37 25/4/36
f 31/7/43 30/6/42 29/6/42
f 30/6/42 31/7/43 32/7/43
f 29/6/45 30/6/45 31/7/44
f 32/7/44 31/7/44 30/6/45
f 33/8/46 32/7/43 31/7/43
f 32/7/43 33/8/46 34/8/46
f 31/7/44 32/7/44 33/8/47
f 34/8/47 33/8/47 32/7/44
f 35/9/48 34/8/46 33/8/46
f 34/8/46 35/9/48 36/9/48
f 33/8/47 34/8/47 35/9/49
f 36/9/49 35/9/49 34/8/47
f 38/9/45 35/9/48 37/9/45
f 35/9/48 38/9/45 36/9/48
f 37/9/42 35/9/49 38/9/42
f 36/9/49 38/9/42 35/9/49
f 40/8/44 37/9/45 39/8/44
f 37/9/45 40/8/44 38/9/45
f 39/8/43 37/9/42 40/8/43
f 38/9/42 40/8/43 37/9/42
f 40/8/44 42/7/47 41/7/47
f 42/7/47 40/8/44 39/8/44
f 41/7/46 42/7/46 40/8/43
f 39/8/43 40/8/43 42/7/46
f 44/6/49 42/7/47 43/6/49
f 42/7/47 44/6/49 41/7/47
f 43/6/48 42/7/46 44/6/48
f 41/7/46 44/6/48 42/7/46
f 46/6/1 43/6/49 45/6/1
f 43/6/49 46/6/1 44/6/49
f 45/6/50 43/6/48 46/6/50
f 44/6/48 46/6/50 43/6/48
f 30/6/42 47/6/1 29/6/42
f 47/6/1 30/6/42 48/6/1
f 29/6/45 47/6/50 30/6/45
f 48/6/50 30/6/45 47/6/50
f 51/7/43 50/6/42 49/6/42
f 50/6/42 51/7/43 52/7/43
f 49/6/45 50/6/45 51/7/44
f 52/7/44 51/7/44 50/6/45
f 53/8/46 52/7/43 51/7/43
f 52/7/43 53/8/46 54/8/46
f 51/7/44 52/7/44 53/8/47
f 54/8/47 53/8/47 52/7/44
f 55/9/48 54/8/46 53/8/46
f 54/8/46 55/9/48 56/9/48
f 53/8/47 54/8/47 55/9/49
f 56/9/49 55/9/49 54/8/47
f 58/9/45 55/9/48 57/9/45
f 55/9/48 58/9/45 56/9/48
f 57/9/42 55/9/49 58/9/42
f 56/9/49 58/9/42 55/9/49
f 60/8/44 57/9/45 59/8/44
f 57/9/45 60/8/44 58/9/45
f 59/8/43 57/9/42 60/8/43
f 58/9/42 60/8/43 57/9/42
f 60/8/44 62/7/47 61/7/47
f 62/7/47 60/8/44 59/8/44
f 61/7/46 62/7/46 60/8/43
f 59/8/43 60/8/43 62/7/46
f 64/6/49 62/7/47 63/6/49
f 62/7/47 64/6/49 61/7/47
f 63/6/48 62/7/46 64/6/48
f 61/7/46 64/6/48 62/7/46
f 66/6/1 63/6/49 65/6/1
f 63/6/49 66/6/1 64/6/49
f 65/6/50 63/6/48 66/6/50
f 64/6/48 66/6/50 63/6/48
f 50/6/42 67/6/1 49/6/42
f 67/6/1 50/6/42 68/6/1
f 49/6/45 67/6/50 50/6/45
f 68/6/50 50/6/45 67/6/50

