# Created by Kenney (www.kenney.nl)

mtllib aid-sunglasses.mtl

g aid-sunglasses

v 0.07208996 1.14441E-07 0.09179556 1 1 1
v 0.03821243 0.01403242 0.09179556 1 1 1
v 0.1059675 0.01403242 0.09179556 1 1 1
v 0.0241799 0.04790994 0.09179556 1 1 1
v 0.1133013 0.03173782 0.09179556 1 1 1
v 0.1135089 0.03223884 0.09179556 1 1 1
v 0.12 0.04790994 0.09179556 1 1 1
v 0.008848009 0.05674684 0.09179556 1 1 1
v 0.12 0.06358103 0.09179556 1 1 1
v -0.008848009 0.05674684 0.09179556 1 1 1
v -0.12 0.06358103 0.09179556 1 1 1
v -0.0241799 0.04790994 0.09179556 1 1 1
v -0.12 0.06447779 0.09179556 1 1 1
v -0.12 0.04790994 0.09179556 1 1 1
v 0.12 0.06447779 0.09179556 1 1 1
v -0.12 0.09581999 0.09179556 1 1 1
v 0.12 0.09581999 0.09179556 1 1 1
v -0.1135089 0.03223884 0.09179556 1 1 1
v -0.03821243 0.01403242 0.09179556 1 1 1
v -0.1059675 0.01403242 0.09179556 1 1 1
v -0.07208996 1.14441E-07 0.09179556 1 1 1
v -0.165 0.06447802 -0.09179559 1 1 1
v -0.165 0.09581995 -0.09179559 1 1 1
v -0.165 0.06447802 0.07179559 1 1 1
v -0.165 0.09581995 0.07179559 1 1 1
v -0.145 0.06447802 0.09179559 1 1 1
v -0.145 0.09581995 0.09179559 1 1 1
v 0.165 0.09581995 0.07179559 1 1 1
v 0.165 0.06447802 0.07179559 1 1 1
v 0.145 0.09581995 0.09179559 1 1 1
v 0.145 0.06447802 0.09179559 1 1 1
v 0.165 0.09581995 -0.09179559 1 1 1
v 0.165 0.06447802 -0.09179559 1 1 1
v 0.1200002 0.06447802 0.09179559 1 1 1
v 0.1200002 0.09581995 0.09179559 1 1 1
v -0.1200002 0.06447802 0.09179559 1 1 1
v -0.1200002 0.09581995 0.09179559 1 1 1

vn 0 0 1
vn 0 0 -1
vn -0.9999995 0.0009775166 0
vn -0.9237537 0.0009775171 0.3829859
vn 0.9237537 0.0009775171 -0.3829859
vn 0.9999995 0.0009775166 0
vn -0.3822092 0.0009775171 0.9240753
vn 0.3822092 0.0009775171 -0.9240753
vn 0.9237537 0.0009775171 0.3829859
vn 0.3822092 0.0009775171 0.9240753
vn -0.3822092 0.0009775171 -0.9240753
vn -0.9237537 0.0009775171 -0.3829859
vn -0.0009775171 0.0009775171 0.999999
vn -0.0009775171 0.0009775171 -0.999999

vt 0.09375 0.02500024
vt 0.09375 0.05428912
vt 0.09375 0.1249999
vt 0.09375 0.09124467
vt 0.09375 0.09229042
vt 0.09375 0.1434447
vt 0.09375 0.1577093
vt 0.09375 0.1595811
vt 0.09375 0.225
vt 0.09375 0.1250005

usemtl colormap

f 3/2/1 2/2/1 1/1/1
f 2/2/1 3/2/1 4/3/1
f 4/3/1 3/2/1 5/4/1
f 4/3/1 5/4/1 6/5/1
f 4/3/1 6/5/1 7/3/1
f 4/3/1 7/3/1 8/6/1
f 8/6/1 7/3/1 9/7/1
f 8/6/1 9/7/1 10/6/1
f 10/6/1 9/7/1 11/7/1
f 11/7/1 12/3/1 10/6/1
f 11/7/1 9/7/1 13/8/1
f 14/3/1 12/3/1 11/7/1
f 13/8/1 9/7/1 15/8/1
f 13/8/1 15/8/1 16/9/1
f 16/9/1 15/8/1 17/9/1
f 18/5/1 12/3/1 14/3/1
f 18/5/1 19/2/1 12/3/1
f 20/2/1 19/2/1 18/5/1
f 19/2/1 20/2/1 21/1/1
f 1/1/2 2/2/2 3/2/2
f 4/3/2 3/2/2 2/2/2
f 5/4/2 3/2/2 4/3/2
f 6/5/2 5/4/2 4/3/2
f 7/3/2 6/5/2 4/3/2
f 8/6/2 7/3/2 4/3/2
f 9/7/2 7/3/2 8/6/2
f 10/6/2 9/7/2 8/6/2
f 11/7/2 9/7/2 10/6/2
f 10/6/2 12/3/2 11/7/2
f 13/8/2 9/7/2 11/7/2
f 11/7/2 12/3/2 14/3/2
f 15/8/2 9/7/2 13/8/2
f 16/9/2 15/8/2 13/8/2
f 17/9/2 15/8/2 16/9/2
f 14/3/2 12/3/2 18/5/2
f 12/3/2 19/2/2 18/5/2
f 18/5/2 19/2/2 20/2/2
f 21/1/2 20/2/2 19/2/2
f 24/10/4 23/9/3 22/10/3
f 23/9/3 24/10/4 25/9/4
f 22/10/6 23/9/6 24/10/5
f 25/9/5 24/10/5 23/9/6
f 26/10/7 25/9/4 24/10/4
f 25/9/4 26/10/7 27/9/7
f 24/10/5 25/9/5 26/10/8
f 27/9/8 26/10/8 25/9/5
f 30/9/10 29/10/9 28/9/9
f 29/10/9 30/9/10 31/10/10
f 28/9/12 29/10/12 30/9/11
f 31/10/11 30/9/11 29/10/12
f 28/9/9 33/10/6 32/9/6
f 33/10/6 28/9/9 29/10/9
f 32/9/3 33/10/3 28/9/12
f 29/10/12 28/9/12 33/10/3
f 30/9/10 34/10/13 31/10/10
f 34/10/13 30/9/10 35/9/13
f 31/10/11 34/10/14 30/9/11
f 35/9/14 30/9/11 34/10/14
f 37/9/13 26/10/7 36/10/13
f 26/10/7 37/9/13 27/9/7
f 36/10/14 26/10/8 37/9/14
f 27/9/8 37/9/14 26/10/8

g aid-sunglasses




usemtl colormap

f 3/2/1 2/2/1 1/1/1
f 2/2/1 3/2/1 4/3/1
f 4/3/1 3/2/1 5/4/1
f 4/3/1 5/4/1 6/5/1
f 4/3/1 6/5/1 7/3/1
f 4/3/1 7/3/1 8/6/1
f 8/6/1 7/3/1 9/7/1
f 8/6/1 9/7/1 10/6/1
f 10/6/1 9/7/1 11/7/1
f 11/7/1 12/3/1 10/6/1
f 11/7/1 9/7/1 13/8/1
f 14/3/1 12/3/1 11/7/1
f 13/8/1 9/7/1 15/8/1
f 13/8/1 15/8/1 16/9/1
f 16/9/1 15/8/1 17/9/1
f 18/5/1 12/3/1 14/3/1
f 18/5/1 19/2/1 12/3/1
f 20/2/1 19/2/1 18/5/1
f 19/2/1 20/2/1 21/1/1
f 1/1/2 2/2/2 3/2/2
f 4/3/2 3/2/2 2/2/2
f 5/4/2 3/2/2 4/3/2
f 6/5/2 5/4/2 4/3/2
f 7/3/2 6/5/2 4/3/2
f 8/6/2 7/3/2 4/3/2
f 9/7/2 7/3/2 8/6/2
f 10/6/2 9/7/2 8/6/2
f 11/7/2 9/7/2 10/6/2
f 10/6/2 12/3/2 11/7/2
f 13/8/2 9/7/2 11/7/2
f 11/7/2 12/3/2 14/3/2
f 15/8/2 9/7/2 13/8/2
f 16/9/2 15/8/2 13/8/2
f 17/9/2 15/8/2 16/9/2
f 14/3/2 12/3/2 18/5/2
f 12/3/2 19/2/2 18/5/2
f 18/5/2 19/2/2 20/2/2
f 21/1/2 20/2/2 19/2/2
f 24/10/4 23/9/3 22/10/3
f 23/9/3 24/10/4 25/9/4
f 22/10/6 23/9/6 24/10/5
f 25/9/5 24/10/5 23/9/6
f 26/10/7 25/9/4 24/10/4
f 25/9/4 26/10/7 27/9/7
f 24/10/5 25/9/5 26/10/8
f 27/9/8 26/10/8 25/9/5
f 30/9/10 29/10/9 28/9/9
f 29/10/9 30/9/10 31/10/10
f 28/9/12 29/10/12 30/9/11
f 31/10/11 30/9/11 29/10/12
f 28/9/9 33/10/6 32/9/6
f 33/10/6 28/9/9 29/10/9
f 32/9/3 33/10/3 28/9/12
f 29/10/12 28/9/12 33/10/3
f 30/9/10 34/10/13 31/10/10
f 34/10/13 30/9/10 35/9/13
f 31/10/11 34/10/14 30/9/11
f 35/9/14 30/9/11 34/10/14
f 37/9/13 26/10/7 36/10/13
f 26/10/7 37/9/13 27/9/7
f 36/10/14 26/10/8 37/9/14
f 27/9/8 37/9/14 26/10/8

