# Created by Kenney (www.kenney.nl)

mtllib aid-cane-low-vision.mtl

g aid-cane-low-vision

v 0.028 0.24 -0.028 1 1 1
v 0.028 0.24 0.02799994 1 1 1
v -0.02799994 0.24 -0.028 1 1 1
v -0.02799994 0.24 0.02799994 1 1 1
v 0.02539993 0.1799999 0.02539988 1 1 1
v 0.02539993 0.1799999 -0.02539993 1 1 1
v -0.02539988 0.1799999 0.02539988 1 1 1
v -0.02539988 0.1799999 -0.02539993 1 1 1
v 0.02379997 2.193343E-08 0.02380001 1 1 1
v 0.02379997 2.193343E-08 -0.02379997 1 1 1
v -0.02380001 2.193343E-08 0.02380001 1 1 1
v -0.02380001 2.193343E-08 -0.02379997 1 1 1
v 0.042 0.05000001 0.04200003 1 1 1
v -0.04200003 0.05000001 0.04200003 1 1 1
v -0.04200003 0.05000001 -0.042 1 1 1
v 0.042 0.05000001 -0.042 1 1 1
v -0.02380001 0.09999999 -0.02379997 1 1 1
v 0.02379997 0.09999999 -0.02379997 1 1 1
v -0.02380001 0.09999999 0.02380001 1 1 1
v 0.02379997 0.09999999 0.02380001 1 1 1
v 0.048 0.31 -0.02299997 1 1 1
v 0.048 0.31 0.02299997 1 1 1
v 0.02299997 0.31 -0.048 1 1 1
v 0.02299997 0.31 0.048 1 1 1
v -0.02299997 0.31 -0.048 1 1 1
v -0.02299997 0.31 0.048 1 1 1
v -0.048 0.31 -0.02299997 1 1 1
v -0.048 0.31 0.02299997 1 1 1
v 0.04079998 0.24 0.01955003 1 1 1
v 0.04079998 0.24 -0.01955002 1 1 1
v 0.01955002 0.24 0.04079999 1 1 1
v 0.01955002 0.24 -0.04079998 1 1 1
v -0.01955003 0.24 0.04079999 1 1 1
v -0.01955003 0.24 -0.04079998 1 1 1
v -0.04079999 0.24 0.01955003 1 1 1
v -0.04079999 0.24 -0.01955002 1 1 1
v -0.02539997 0.18 -0.0254 1 1 1
v -0.02539997 0.18 0.02539997 1 1 1
v -0.02380003 0.1 -0.02379997 1 1 1
v -0.02380003 0.1 0.02380003 1 1 1
v 0.0254 0.18 -0.0254 1 1 1
v 0.02379997 0.1 -0.02379997 1 1 1
v 0.0254 0.18 0.02539997 1 1 1
v 0.02379997 0.1 0.02380003 1 1 1

vn 0.000459093 0.9999999 0
vn 0.7057827 -0.06048663 0.7058414
vn 0.7057827 -0.06048663 -0.7058414
vn -0.7065319 -0.06048663 0.7050915
vn -0.7065319 -0.06048663 -0.7050915
vn 0.0005413117 -0.9999999 0
vn 0.6285475 -0.457672 0.6288596
vn 0.7063043 -0.0003464396 0.7079084
vn 0.6285475 -0.457672 -0.6288596
vn -0.6293961 -0.457672 0.6280103
vn -0.7071069 -0.0003464396 0.7071066
vn -0.6293961 -0.457672 -0.6280103
vn -0.7071069 -0.0003464396 -0.7071066
vn 0.7063043 -0.0003464396 -0.7079084
vn -0.6295062 0.4584311 -0.6273459
vn 0.6286575 0.4584311 -0.6281964
vn -0.6295062 0.4584311 0.6273459
vn 0.6286575 0.4584311 0.6281964
vn -0.0009775166 0.9999995 0
vn -0.0009775166 -0.9999995 0
vn 0.3782991 -0.1124145 0.9188323
vn -0.3782991 -0.1124145 0.9188323
vn 0.3822092 -0.1124145 0.9172127
vn -0.3822092 -0.1124145 0.9172127
vn -0.9178886 -0.1124145 0.3805831
vn -0.3782991 -0.1124145 -0.9188323
vn 0.3782991 -0.1124145 -0.9188323
vn -0.3822092 -0.1124145 -0.9172127
vn 0.3822092 -0.1124145 -0.9172127
vn 0.9178886 -0.1124145 -0.3805831
vn 0.9178886 -0.1124145 0.3805831
vn -0.9178886 -0.1124145 -0.3805831
vn -0.7068241 -0.02832824 -0.7068219
vn -0.7068241 -0.02832824 0.7068219
vn 0.7068241 -0.02832824 -0.7068219
vn 0.7068241 -0.02832824 0.7068219

vt 0.59375 0.225
vt 0.59375 0.1749999
vt 0.59375 0.02500005
vt 0.59375 0.125
vt 0.21875 0.225
vt 0.21875 0.02500001
vt 0.59375 0.425
vt 0.59375 0.325

usemtl colormap

f 3/1/1 2/1/1 1/1/1
f 2/1/1 3/1/1 4/1/1
f 6/2/3 2/1/2 5/2/2
f 2/1/2 7/2/4 5/2/2
f 2/1/2 6/2/3 1/1/3
f 7/2/4 2/1/2 4/1/4
f 6/2/3 3/1/5 1/1/3
f 4/1/4 8/2/5 7/2/4
f 8/2/5 4/1/4 3/1/5
f 3/1/5 6/2/3 8/2/5
f 11/3/6 10/3/6 9/3/6
f 10/3/6 11/3/6 12/3/6
f 10/3/9 13/4/8 9/3/7
f 13/4/8 11/3/10 9/3/7
f 11/3/10 13/4/8 14/4/11
f 14/4/11 12/3/12 11/3/10
f 15/4/13 10/3/9 12/3/12
f 12/3/12 14/4/11 15/4/13
f 10/3/9 15/4/13 16/4/14
f 13/4/8 10/3/9 16/4/14
f 17/1/15 16/4/14 15/4/13
f 14/4/11 17/1/15 15/4/13
f 16/4/14 17/1/15 18/1/16
f 18/1/16 13/4/8 16/4/14
f 17/1/15 14/4/11 19/1/17
f 13/4/8 18/1/16 20/1/18
f 14/4/11 20/1/18 19/1/17
f 20/1/18 14/4/11 13/4/8
f 23/5/19 22/5/19 21/5/19
f 22/5/19 23/5/19 24/5/19
f 24/5/19 23/5/19 25/5/19
f 24/5/19 25/5/19 26/5/19
f 26/5/19 25/5/19 27/5/19
f 26/5/19 27/5/19 28/5/19
f 31/6/20 30/6/20 29/6/20
f 30/6/20 31/6/20 32/6/20
f 32/6/20 31/6/20 33/6/20
f 32/6/20 33/6/20 34/6/20
f 34/6/20 33/6/20 35/6/20
f 34/6/20 35/6/20 36/6/20
f 24/5/23 33/6/22 31/6/21
f 33/6/22 24/5/23 26/5/24
f 33/6/22 28/5/25 35/6/25
f 28/5/25 33/6/22 26/5/24
f 25/5/28 32/6/27 34/6/26
f 32/6/27 25/5/28 23/5/29
f 22/5/31 30/6/30 21/5/30
f 30/6/30 22/5/31 29/6/31
f 36/6/32 28/5/25 27/5/32
f 28/5/25 36/6/32 35/6/25
f 22/5/31 31/6/21 29/6/31
f 31/6/21 22/5/31 24/5/23
f 23/5/29 30/6/30 32/6/27
f 30/6/30 23/5/29 21/5/30
f 34/6/26 27/5/32 25/5/28
f 27/5/32 34/6/26 36/6/32
f 39/8/33 38/7/34 37/7/33
f 38/7/34 39/8/33 40/8/34
f 43/7/36 42/8/35 41/7/35
f 42/8/35 43/7/36 44/8/36
f 37/7/33 42/8/35 39/8/33
f 42/8/35 37/7/33 41/7/35
f 43/7/36 40/8/34 44/8/36
f 40/8/34 43/7/36 38/7/34

g aid-cane-low-vision




usemtl colormap

f 3/1/1 2/1/1 1/1/1
f 2/1/1 3/1/1 4/1/1
f 6/2/3 2/1/2 5/2/2
f 2/1/2 7/2/4 5/2/2
f 2/1/2 6/2/3 1/1/3
f 7/2/4 2/1/2 4/1/4
f 6/2/3 3/1/5 1/1/3
f 4/1/4 8/2/5 7/2/4
f 8/2/5 4/1/4 3/1/5
f 3/1/5 6/2/3 8/2/5
f 11/3/6 10/3/6 9/3/6
f 10/3/6 11/3/6 12/3/6
f 10/3/9 13/4/8 9/3/7
f 13/4/8 11/3/10 9/3/7
f 11/3/10 13/4/8 14/4/11
f 14/4/11 12/3/12 11/3/10
f 15/4/13 10/3/9 12/3/12
f 12/3/12 14/4/11 15/4/13
f 10/3/9 15/4/13 16/4/14
f 13/4/8 10/3/9 16/4/14
f 17/1/15 16/4/14 15/4/13
f 14/4/11 17/1/15 15/4/13
f 16/4/14 17/1/15 18/1/16
f 18/1/16 13/4/8 16/4/14
f 17/1/15 14/4/11 19/1/17
f 13/4/8 18/1/16 20/1/18
f 14/4/11 20/1/18 19/1/17
f 20/1/18 14/4/11 13/4/8
f 23/5/19 22/5/19 21/5/19
f 22/5/19 23/5/19 24/5/19
f 24/5/19 23/5/19 25/5/19
f 24/5/19 25/5/19 26/5/19
f 26/5/19 25/5/19 27/5/19
f 26/5/19 27/5/19 28/5/19
f 31/6/20 30/6/20 29/6/20
f 30/6/20 31/6/20 32/6/20
f 32/6/20 31/6/20 33/6/20
f 32/6/20 33/6/20 34/6/20
f 34/6/20 33/6/20 35/6/20
f 34/6/20 35/6/20 36/6/20
f 24/5/23 33/6/22 31/6/21
f 33/6/22 24/5/23 26/5/24
f 33/6/22 28/5/25 35/6/25
f 28/5/25 33/6/22 26/5/24
f 25/5/28 32/6/27 34/6/26
f 32/6/27 25/5/28 23/5/29
f 22/5/31 30/6/30 21/5/30
f 30/6/30 22/5/31 29/6/31
f 36/6/32 28/5/25 27/5/32
f 28/5/25 36/6/32 35/6/25
f 22/5/31 31/6/21 29/6/31
f 31/6/21 22/5/31 24/5/23
f 23/5/29 30/6/30 32/6/27
f 30/6/30 23/5/29 21/5/30
f 34/6/26 27/5/32 25/5/28
f 27/5/32 34/6/26 36/6/32
f 39/8/33 38/7/34 37/7/33
f 38/7/34 39/8/33 40/8/34
f 43/7/36 42/8/35 41/7/35
f 42/8/35 43/7/36 44/8/36
f 37/7/33 42/8/35 39/8/33
f 42/8/35 37/7/33 41/7/35
f 43/7/36 40/8/34 44/8/36
f 40/8/34 43/7/36 38/7/34

