# Created by Kenney (www.kenney.nl)

mtllib aid-crutch.mtl

g aid-crutch

v -0.048 0.23 -0.02300004 1 1 1
v -0.048 0.27 -0.02300004 1 1 1
v -0.048 0.23 0.02300004 1 1 1
v -0.048 0.27 0.02300004 1 1 1
v -0.02300004 0.23 -0.048 1 1 1
v 0.02300004 0.23 -0.048 1 1 1
v -0.02300004 0.27 -0.048 1 1 1
v 0.02300004 0.27 -0.048 1 1 1
v 0.048 0.27 -0.02300004 1 1 1
v 0.048 0.23 -0.02300004 1 1 1
v 0.048 0.27 0.02300004 1 1 1
v 0.048 0.23 0.02300004 1 1 1
v 0.02300004 0.23 0.048 1 1 1
v -0.02300004 0.23 0.048 1 1 1
v 0.02300004 0.27 0.048 1 1 1
v -0.02300004 0.27 0.048 1 1 1
v -0.098 0.2299999 0.07299998 1 1 1
v -0.098 0.2699999 0.07299998 1 1 1
v -0.098 0.2299999 0.1390001 1 1 1
v -0.098 0.2699999 0.1390001 1 1 1
v -0.07299996 0.2299999 0.04799994 1 1 1
v 0.07299996 0.2299999 0.04799994 1 1 1
v -0.07299996 0.2699999 0.04799994 1 1 1
v 0.07299996 0.2699999 0.04799994 1 1 1
v 0.098 0.2699999 0.07299998 1 1 1
v 0.098 0.2299999 0.07299998 1 1 1
v 0.098 0.2699999 0.1390001 1 1 1
v 0.098 0.2299999 0.1390001 1 1 1
v -0.06800003 0.2299999 0.1390001 1 1 1
v -0.06800003 0.2299999 0.08542643 1 1 1
v -0.06057369 0.2299999 0.0779999 1 1 1
v 0.0605735 0.2299999 0.0779999 1 1 1
v 0.06800003 0.2299999 0.08542643 1 1 1
v 0.06800003 0.2299999 0.1390001 1 1 1
v -0.06800003 0.2699999 0.1390001 1 1 1
v -0.06800003 0.2699999 0.08542643 1 1 1
v -0.06057369 0.2699999 0.0779999 1 1 1
v 0.0605735 0.2699999 0.0779999 1 1 1
v 0.06800003 0.2699999 0.08542643 1 1 1
v 0.06800003 0.2699999 0.1390001 1 1 1
v -0.01628823 0.1462751 0.1139667 1 1 1
v -0.02710921 0.1566698 0.1141746 1 1 1
v 0.01553848 0.1469115 0.1139794 1 1 1
v 0.02593523 0.1577303 0.1141958 1 1 1
v -0.02774555 0.18849 0.1148109 1 1 1
v 0.02529879 0.1895505 0.1148322 1 1 1
v -0.0173489 0.199309 0.1150274 1 1 1
v 0.01447781 0.1999452 0.1150401 1 1 1
v 0.009764354 0.1570828 0.0655731 1 1 1
v 0.01651029 0.1641026 0.0657135 1 1 1
v 0.01609742 0.1847494 0.06612646 1 1 1
v 0.009076084 0.191494 0.06626137 1 1 1
v -0.0108865 0.1566699 0.06556486 1 1 1
v -0.01790774 0.1634146 0.06569978 1 1 1
v -0.01832071 0.1840613 0.06611264 1 1 1
v -0.01157477 0.1910812 0.06625304 1 1 1
v -0.01264789 0.154569 0.01691311 1 1 1
v 0.01164723 0.1550547 0.01692281 1 1 1
v -0.02090821 0.1625039 0.01707183 1 1 1
v 0.01958365 0.1633134 0.01708799 1 1 1
v -0.02139407 0.1867942 0.01755758 1 1 1
v 0.01909789 0.1876037 0.01757385 1 1 1
v -0.01345765 0.1950529 0.01772277 1 1 1
v 0.01083757 0.1955385 0.01773247 1 1 1

vn -0.9237537 0.0009775171 -0.3829859
vn -0.9237537 0.0009775171 0.3829859
vn -0.3822092 0.0009775171 -0.9240753
vn 0.3822092 0.0009775171 -0.9240753
vn 0.9237537 0.0009775171 -0.3829859
vn 0.9237537 0.0009775171 0.3829859
vn 0.3822092 0.0009775171 0.9240753
vn -0.3822092 0.0009775171 0.9240753
vn -0.0009775166 0.9999995 0
vn -0.0009775166 -0.9999995 0
vn -0.9999995 0.0009775166 0
vn 0.7067448 0.0009775171 0.7074679
vn -0.0009775171 0.0009775171 0.999999
vn 0.9999995 0.0009775166 0
vn -0.00028388 -0.01972753 0.9998054
vn 0.3835713 -0.8929527 -0.2356025
vn 0.3981251 -0.887495 -0.2320538
vn 0.9129641 -0.3435485 -0.2201611
vn 0.9075064 -0.3581023 -0.2195334
vn 0.8911335 0.4023313 -0.2097872
vn 0.3617407 0.9117126 -0.1947401
vn 0.8984103 0.3877775 -0.2061249
vn 0.347187 0.9171703 -0.1956014
vn -0.3623085 -0.9020488 -0.2346073
vn -0.3477547 -0.9075064 -0.2355818
vn -0.8971589 -0.3799329 -0.225293
vn -0.9117126 0.3513932 -0.2128447
vn -0.8917012 -0.3944867 -0.2219216
vn -0.9062549 0.3659469 -0.2116243
vn -0.3841391 0.9026166 -0.1942177
vn -0.3986928 0.8953397 -0.1985218
vn -0.00028388 0.02029529 -0.999794
vn 0.9129641 0.4005121 0.07801668
vn 0.9147833 0.3968736 0.07525197
vn 0.3653792 0.9262664 0.09235069
vn 0.3599215 0.9280856 0.09546523
vn 0.9275178 -0.3671984 0.06982849
vn 0.9293371 -0.3617407 0.0740016
vn 0.4017635 -0.9147833 0.041924
vn -0.3659469 -0.9293371 0.04914691
vn 0.3981251 -0.9166026 0.03655349
vn -0.3604892 -0.9311563 0.05473108
vn -0.4023313 0.9117126 0.0831237
vn -0.3968736 0.9135318 0.08916783
vn -0.9135318 -0.4035828 0.050799
vn -0.9280856 0.3641277 0.07789808
vn -0.9153511 -0.3981251 0.06023956
vn -0.9299048 0.35867 0.08144231

vt 0.71875 0.2750002
vt 0.71875 0.475
vt 0.71875 0.275
vt 0.71875 0.3137354
vt 0.71875 0.2773712
vt 0.71875 0.3176872
vt 0.71875 0.4323126
vt 0.71875 0.4362645
vt 0.71875 0.472629
vt 0.71875 0.3152743
vt 0.71875 0.3414336
vt 0.71875 0.4183732
vt 0.71875 0.4435069
vt 0.71875 0.3137358
vt 0.71875 0.3388695
vt 0.71875 0.415809
vt 0.71875 0.4419684
vt 0.59375 0.05590696
vt 0.59375 0.05771675
vt 0.59375 0.08547596
vt 0.59375 0.08849277
vt 0.59375 0.1759931
vt 0.59375 0.1790096
vt 0.59375 0.2067688
vt 0.59375 0.2085786
vt 0.46875 0.1790096
vt 0.46875 0.1683732
vt 0.46875 0.2085786
vt 0.46875 0.1935069
vt 0.46875 0.08849277
vt 0.46875 0.09143364
vt 0.46875 0.05771675
vt 0.46875 0.05590696
vt 0.46875 0.06527431
vt 0.46875 0.06373578
vt 0.46875 0.2067688
vt 0.46875 0.1919684
vt 0.46875 0.08547596
vt 0.46875 0.1759931
vt 0.46875 0.08886955
vt 0.46875 0.1658091

usemtl colormap

f 3/1/2 2/2/1 1/1/1
f 2/2/1 3/1/2 4/2/2
f 7/2/3 6/1/4 5/1/3
f 6/1/4 7/2/3 8/2/4
f 11/2/6 10/1/5 9/2/5
f 10/1/5 11/2/6 12/1/6
f 15/2/7 14/1/8 13/1/7
f 14/1/8 15/2/7 16/2/8
f 1/1/1 7/2/3 5/1/3
f 7/2/3 1/1/1 2/2/1
f 9/2/5 6/1/4 8/2/4
f 6/1/4 9/2/5 10/1/5
f 15/2/7 12/1/6 11/2/6
f 12/1/6 15/2/7 13/1/7
f 14/1/8 4/2/2 3/1/2
f 4/2/2 14/1/8 16/2/8
f 8/2/9 11/2/9 9/2/9
f 11/2/9 8/2/9 15/2/9
f 15/2/9 8/2/9 7/2/9
f 15/2/9 7/2/9 16/2/9
f 16/2/9 7/2/9 2/2/9
f 16/2/9 2/2/9 4/2/9
f 13/1/10 10/1/10 12/1/10
f 10/1/10 13/1/10 6/1/10
f 6/1/10 13/1/10 14/1/10
f 6/1/10 14/1/10 5/1/10
f 5/1/10 14/1/10 3/1/10
f 5/1/10 3/1/10 1/1/10
f 19/3/11 18/2/1 17/3/1
f 18/2/1 19/3/11 20/2/11
f 23/2/3 22/3/4 21/3/3
f 22/3/4 23/2/3 24/2/4
f 27/2/12 26/3/5 25/2/5
f 26/3/5 27/2/12 28/3/12
f 17/3/1 23/2/3 21/3/3
f 23/2/3 17/3/1 18/2/1
f 24/2/4 26/3/5 22/3/4
f 26/3/5 24/2/4 25/2/5
f 19/3/10 30/3/10 29/3/10
f 30/3/10 19/3/10 21/3/10
f 21/3/10 19/3/10 17/3/10
f 21/3/10 31/3/10 30/3/10
f 21/3/10 32/3/10 31/3/10
f 22/3/10 32/3/10 21/3/10
f 22/3/10 33/3/10 32/3/10
f 22/3/10 34/3/10 33/3/10
f 26/3/10 34/3/10 22/3/10
f 34/3/10 26/3/10 28/3/10
f 20/2/9 23/2/9 18/2/9
f 35/2/9 23/2/9 20/2/9
f 36/2/9 23/2/9 35/2/9
f 37/2/9 23/2/9 36/2/9
f 38/2/9 23/2/9 37/2/9
f 38/2/9 24/2/9 23/2/9
f 24/2/9 38/2/9 39/2/9
f 40/2/9 24/2/9 39/2/9
f 27/2/9 24/2/9 40/2/9
f 24/2/9 27/2/9 25/2/9
f 27/2/12 34/3/13 28/3/12
f 34/3/13 27/2/12 40/2/13
f 36/2/6 31/3/7 37/2/7
f 31/3/7 36/2/6 30/3/6
f 35/2/14 30/3/6 36/2/6
f 30/3/6 35/2/14 29/3/14
f 34/3/11 39/2/2 33/3/2
f 39/2/2 34/3/11 40/2/11
f 39/2/2 32/3/8 33/3/2
f 32/3/8 39/2/2 38/2/8
f 38/2/8 31/3/7 32/3/8
f 31/3/7 38/2/8 37/2/7
f 35/2/13 19/3/13 29/3/13
f 19/3/13 35/2/13 20/2/13
f 43/5/15 42/4/15 41/3/15
f 42/4/15 43/5/15 44/6/15
f 42/4/15 44/6/15 45/7/15
f 45/7/15 44/6/15 46/8/15
f 45/7/15 46/8/15 47/9/15
f 47/9/15 46/8/15 48/2/15
f 50/11/18 43/5/17 49/10/16
f 43/5/17 50/11/18 44/6/19
f 51/12/22 48/2/21 46/8/20
f 48/2/21 51/12/22 52/13/23
f 41/3/24 49/10/16 43/5/17
f 49/10/16 41/3/24 53/14/25
f 42/4/28 55/16/27 54/15/26
f 55/16/27 42/4/28 45/7/29
f 45/7/29 56/17/30 55/16/27
f 56/17/30 45/7/29 47/9/31
f 51/12/22 44/6/19 50/11/18
f 44/6/19 51/12/22 46/8/20
f 41/3/24 54/15/26 53/14/25
f 54/15/26 41/3/24 42/4/28
f 52/13/23 47/9/31 48/2/21
f 47/9/31 52/13/23 56/17/30
f 59/20/32 58/19/32 57/18/32
f 58/19/32 59/20/32 60/21/32
f 60/21/32 59/20/32 61/22/32
f 60/21/32 61/22/32 62/23/32
f 62/23/32 61/22/32 63/24/32
f 62/23/32 63/24/32 64/25/32
f 64/28/35 51/27/34 62/26/33
f 51/27/34 64/28/35 52/29/36
f 62/26/33 50/31/38 60/30/37
f 50/31/38 62/26/33 51/27/34
f 49/34/41 57/33/40 58/32/39
f 57/33/40 49/34/41 53/35/42
f 63/36/43 52/29/36 64/28/35
f 52/29/36 63/36/43 56/37/44
f 54/40/47 61/39/46 59/38/45
f 61/39/46 54/40/47 55/41/48
f 55/41/48 63/36/43 61/39/46
f 63/36/43 55/41/48 56/37/44
f 54/40/47 57/33/40 53/35/42
f 57/33/40 54/40/47 59/38/45
f 60/30/37 49/34/41 58/32/39
f 49/34/41 60/30/37 50/31/38

g aid-crutch




usemtl colormap

f 3/1/2 2/2/1 1/1/1
f 2/2/1 3/1/2 4/2/2
f 7/2/3 6/1/4 5/1/3
f 6/1/4 7/2/3 8/2/4
f 11/2/6 10/1/5 9/2/5
f 10/1/5 11/2/6 12/1/6
f 15/2/7 14/1/8 13/1/7
f 14/1/8 15/2/7 16/2/8
f 1/1/1 7/2/3 5/1/3
f 7/2/3 1/1/1 2/2/1
f 9/2/5 6/1/4 8/2/4
f 6/1/4 9/2/5 10/1/5
f 15/2/7 12/1/6 11/2/6
f 12/1/6 15/2/7 13/1/7
f 14/1/8 4/2/2 3/1/2
f 4/2/2 14/1/8 16/2/8
f 8/2/9 11/2/9 9/2/9
f 11/2/9 8/2/9 15/2/9
f 15/2/9 8/2/9 7/2/9
f 15/2/9 7/2/9 16/2/9
f 16/2/9 7/2/9 2/2/9
f 16/2/9 2/2/9 4/2/9
f 13/1/10 10/1/10 12/1/10
f 10/1/10 13/1/10 6/1/10
f 6/1/10 13/1/10 14/1/10
f 6/1/10 14/1/10 5/1/10
f 5/1/10 14/1/10 3/1/10
f 5/1/10 3/1/10 1/1/10
f 19/3/11 18/2/1 17/3/1
f 18/2/1 19/3/11 20/2/11
f 23/2/3 22/3/4 21/3/3
f 22/3/4 23/2/3 24/2/4
f 27/2/12 26/3/5 25/2/5
f 26/3/5 27/2/12 28/3/12
f 17/3/1 23/2/3 21/3/3
f 23/2/3 17/3/1 18/2/1
f 24/2/4 26/3/5 22/3/4
f 26/3/5 24/2/4 25/2/5
f 19/3/10 30/3/10 29/3/10
f 30/3/10 19/3/10 21/3/10
f 21/3/10 19/3/10 17/3/10
f 21/3/10 31/3/10 30/3/10
f 21/3/10 32/3/10 31/3/10
f 22/3/10 32/3/10 21/3/10
f 22/3/10 33/3/10 32/3/10
f 22/3/10 34/3/10 33/3/10
f 26/3/10 34/3/10 22/3/10
f 34/3/10 26/3/10 28/3/10
f 20/2/9 23/2/9 18/2/9
f 35/2/9 23/2/9 20/2/9
f 36/2/9 23/2/9 35/2/9
f 37/2/9 23/2/9 36/2/9
f 38/2/9 23/2/9 37/2/9
f 38/2/9 24/2/9 23/2/9
f 24/2/9 38/2/9 39/2/9
f 40/2/9 24/2/9 39/2/9
f 27/2/9 24/2/9 40/2/9
f 24/2/9 27/2/9 25/2/9
f 27/2/12 34/3/13 28/3/12
f 34/3/13 27/2/12 40/2/13
f 36/2/6 31/3/7 37/2/7
f 31/3/7 36/2/6 30/3/6
f 35/2/14 30/3/6 36/2/6
f 30/3/6 35/2/14 29/3/14
f 34/3/11 39/2/2 33/3/2
f 39/2/2 34/3/11 40/2/11
f 39/2/2 32/3/8 33/3/2
f 32/3/8 39/2/2 38/2/8
f 38/2/8 31/3/7 32/3/8
f 31/3/7 38/2/8 37/2/7
f 35/2/13 19/3/13 29/3/13
f 19/3/13 35/2/13 20/2/13
f 43/5/15 42/4/15 41/3/15
f 42/4/15 43/5/15 44/6/15
f 42/4/15 44/6/15 45/7/15
f 45/7/15 44/6/15 46/8/15
f 45/7/15 46/8/15 47/9/15
f 47/9/15 46/8/15 48/2/15
f 50/11/18 43/5/17 49/10/16
f 43/5/17 50/11/18 44/6/19
f 51/12/22 48/2/21 46/8/20
f 48/2/21 51/12/22 52/13/23
f 41/3/24 49/10/16 43/5/17
f 49/10/16 41/3/24 53/14/25
f 42/4/28 55/16/27 54/15/26
f 55/16/27 42/4/28 45/7/29
f 45/7/29 56/17/30 55/16/27
f 56/17/30 45/7/29 47/9/31
f 51/12/22 44/6/19 50/11/18
f 44/6/19 51/12/22 46/8/20
f 41/3/24 54/15/26 53/14/25
f 54/15/26 41/3/24 42/4/28
f 52/13/23 47/9/31 48/2/21
f 47/9/31 52/13/23 56/17/30
f 59/20/32 58/19/32 57/18/32
f 58/19/32 59/20/32 60/21/32
f 60/21/32 59/20/32 61/22/32
f 60/21/32 61/22/32 62/23/32
f 62/23/32 61/22/32 63/24/32
f 62/23/32 63/24/32 64/25/32
f 64/28/35 51/27/34 62/26/33
f 51/27/34 64/28/35 52/29/36
f 62/26/33 50/31/38 60/30/37
f 50/31/38 62/26/33 51/27/34
f 49/34/41 57/33/40 58/32/39
f 57/33/40 49/34/41 53/35/42
f 63/36/43 52/29/36 64/28/35
f 52/29/36 63/36/43 56/37/44
f 54/40/47 61/39/46 59/38/45
f 61/39/46 54/40/47 55/41/48
f 55/41/48 63/36/43 61/39/46
f 63/36/43 55/41/48 56/37/44
f 54/40/47 57/33/40 53/35/42
f 57/33/40 54/40/47 59/38/45
f 60/30/37 49/34/41 58/32/39
f 49/34/41 60/30/37 50/31/38

g Group

v 0.02800015 0 0.02800015 1 1 1
v 0.02800015 0 -0.02800015 1 1 1
v -0.02800015 0 0.02800015 1 1 1
v -0.02800015 0 -0.02800015 1 1 1
v -0.035 0.04 -0.035 1 1 1
v -0.0238 0.1 -0.0238 1 1 1
v -0.035 0.04 0.035 1 1 1
v -0.0238 0.1 0.0238 1 1 1
v 0.035 0.04 -0.035 1 1 1
v 0.035 0.04 0.035 1 1 1
v 0.0238 0.1 -0.0238 1 1 1
v 0.0238 0.1 0.0238 1 1 1
v 0.02800015 0.31 -0.02800015 1 1 1
v 0.02800015 0.31 0.02800015 1 1 1
v -0.02800015 0.31 -0.02800015 1 1 1
v -0.02800015 0.31 0.02800015 1 1 1

vn -0.9999881 0.004887527 0
vn -0.9824047 0.1827957 -0.03829785
vn 0.9999881 0.004887527 0
vn 0.9824047 0.1827957 -0.03829785
vn -0.0009775171 0.004887586 -0.9999875
vn -0.0009775171 0.1827957 -0.9831504
vn -0.0009775171 0.004887586 0.9999875
vn -0.0009775171 0.1827957 0.9831504
vn 0.9843597 -0.1730205 -0.03316319
vn -0.0009775171 -0.1730205 0.9849178
vn -0.0009775171 -0.1730205 -0.9849178
vn -0.9843597 -0.1730205 -0.03316319
vn -0.9997894 -0.02052354 0
vn -0.0009775171 -0.02052786 0.9997888
vn 0.9997894 -0.02052354 0
vn -0.0009775171 -0.02052786 -0.9997888

vt 0.71875 0.3008065
vt 0.71875 0.3395161
vt 0.46875 0.225
vt 0.46875 0.08951613

usemtl colormap

f 67/3/10 66/3/10 65/3/10
f 66/3/10 67/3/10 68/3/10
f 71/42/49 70/43/50 69/42/49
f 70/43/50 71/42/49 72/43/50
f 75/43/52 74/42/51 73/42/51
f 74/42/51 75/43/52 76/43/52
f 70/43/54 73/42/53 69/42/53
f 73/42/53 70/43/54 75/43/54
f 76/43/56 71/42/55 74/42/55
f 71/42/55 76/43/56 72/43/56
f 74/42/51 66/3/57 73/42/51
f 66/3/57 74/42/51 65/3/57
f 74/42/55 67/3/58 65/3/58
f 67/3/58 74/42/55 71/42/55
f 69/42/53 66/3/59 68/3/59
f 66/3/59 69/42/53 73/42/53
f 68/3/60 71/42/49 69/42/49
f 71/42/49 68/3/60 67/3/60
f 79/44/9 78/44/9 77/44/9
f 78/44/9 79/44/9 80/44/9
f 70/45/61 80/44/61 79/44/61
f 80/44/61 70/45/61 72/45/61
f 78/44/62 72/45/62 76/45/62
f 72/45/62 78/44/62 80/44/62
f 78/44/63 75/45/63 77/44/63
f 75/45/63 78/44/63 76/45/63
f 79/44/64 75/45/64 70/45/64
f 75/45/64 79/44/64 77/44/64

