# Created by Kenney (www.kenney.nl)

mtllib aid-glasses.mtl

g aid-glasses

v 0.165 0.06358096 -0.09179559 1 1 1
v 0.165 0.03223902 -0.09179559 1 1 1
v 0.165 0.06358096 0.07179559 1 1 1
v 0.165 0.03223902 0.07179559 1 1 1
v 0.145 0.06358096 0.09179559 1 1 1
v 0.145 0.03223902 0.09179559 1 1 1
v -0.1135089 0.03223902 0.09179559 1 1 1
v -0.145 0.03223902 0.09179559 1 1 1
v -0.1200002 0.04791015 0.09179559 1 1 1
v -0.145 0.06358096 0.09179559 1 1 1
v -0.1135089 0.06358096 0.09179559 1 1 1
v -0.165 0.03223902 0.07179559 1 1 1
v -0.165 0.06358096 0.07179559 1 1 1
v -0.165 0.03223902 -0.09179559 1 1 1
v -0.165 0.06358096 -0.09179559 1 1 1
v 0.02417986 0.04791015 0.09179559 1 1 1
v 0.008847993 0.05674665 0.09179559 1 1 1
v 0.03269316 0.06846278 0.09179559 1 1 1
v -0.008847993 0.05674665 0.09179559 1 1 1
v -0.03269316 0.06846278 0.09179559 1 1 1
v -0.02417986 0.04791015 0.09179559 1 1 1
v 0.0147498 0.07880487 0.09179559 1 1 1
v -0.0147498 0.07880487 0.09179559 1 1 1
v 0.1135089 0.03223902 0.09179559 1 1 1
v 0.1200002 0.04791015 0.09179559 1 1 1
v 0.1135089 0.06358096 0.09179559 1 1 1
v 0.07209 -2.483527E-09 0.0917955 1 1 1
v 0.03821245 0.01403258 0.0917955 1 1 1
v 0.1059674 0.01403258 0.0917955 1 1 1
v 0.02418001 0.04790999 0.0917955 1 1 1
v 0.1133013 0.03173786 0.0917955 1 1 1
v 0.12 0.04790999 0.0917955 1 1 1
v 0.03269326 0.0684628 0.0917955 1 1 1
v 0.1137164 0.06308 0.0917955 1 1 1
v 0.1059674 0.08178754 0.0917955 1 1 1
v 0.03821245 0.08178754 0.0917955 1 1 1
v 0.07209 0.09581999 0.0917955 1 1 1
v -0.07209 -2.483527E-09 0.0917955 1 1 1
v -0.1059676 0.01403258 0.0917955 1 1 1
v -0.03821258 0.01403258 0.0917955 1 1 1
v -0.1135088 0.03223899 0.0917955 1 1 1
v -0.02418 0.04790999 0.0917955 1 1 1
v -0.12 0.04790999 0.0917955 1 1 1
v -0.1135088 0.06358113 0.0917955 1 1 1
v -0.03269325 0.0684628 0.0917955 1 1 1
v -0.1059676 0.08178754 0.0917955 1 1 1
v -0.03821258 0.08178754 0.0917955 1 1 1
v -0.07209 0.09581999 0.0917955 1 1 1

vn 0.9999995 0.0009775166 0
vn 0.9237537 0.0009775171 0.3829859
vn -0.9237537 0.0009775171 -0.3829859
vn -0.9999995 0.0009775166 0
vn 0.3822092 0.0009775171 0.9240753
vn -0.3822092 0.0009775171 -0.9240753
vn -0.0009775171 0.0009775171 0.999999
vn -0.3822092 0.0009775171 0.9240753
vn -0.0009775171 0.0009775171 -0.999999
vn 0.3822092 0.0009775171 -0.9240753
vn -0.9237537 0.0009775171 0.3829859
vn 0.9237537 0.0009775171 -0.3829859
vn 0 0 1

vt 0.46875 0.186363
vt 0.46875 0.1068199
vt 0.46875 0.1465918
vt 0.46875 0.1690181
vt 0.46875 0.1987526
vt 0.46875 0.225
vt 0.59375 0.025
vt 0.59375 0.05428946
vt 0.59375 0.125
vt 0.59375 0.09124476
vt 0.59375 0.1678988
vt 0.59375 0.1566636
vt 0.59375 0.1957108
vt 0.59375 0.225
vt 0.59375 0.09229074
vt 0.59375 0.1577095

usemtl colormap

f 3/1/2 2/2/1 1/1/1
f 2/2/1 3/1/2 4/2/2
f 1/1/4 2/2/4 3/1/3
f 4/2/3 3/1/3 2/2/4
f 5/1/5 4/2/2 3/1/2
f 4/2/2 5/1/5 6/2/5
f 3/1/3 4/2/3 5/1/6
f 6/2/6 5/1/6 4/2/3
f 9/3/7 8/2/8 7/2/7
f 8/2/8 9/3/7 10/1/8
f 10/1/8 9/3/7 11/1/7
f 7/2/9 8/2/10 9/3/9
f 10/1/10 9/3/9 8/2/10
f 11/1/9 9/3/9 10/1/10
f 8/2/8 13/1/11 12/2/11
f 13/1/11 8/2/8 10/1/8
f 12/2/12 13/1/12 8/2/10
f 10/1/10 8/2/10 13/1/12
f 12/2/11 15/1/4 14/2/4
f 15/1/4 12/2/11 13/1/11
f 14/2/1 15/1/1 12/2/12
f 13/1/12 12/2/12 15/1/1
f 18/5/7 17/4/7 16/3/7
f 17/4/7 18/5/7 19/4/7
f 20/5/7 19/4/7 18/5/7
f 19/4/7 20/5/7 21/3/7
f 20/5/7 18/5/7 22/6/7
f 20/5/7 22/6/7 23/6/7
f 5/1/5 24/2/7 6/2/5
f 24/2/7 5/1/5 25/3/7
f 25/3/7 5/1/5 26/1/7
f 6/2/6 24/2/9 5/1/6
f 25/3/9 5/1/6 24/2/9
f 26/1/9 5/1/6 25/3/9
f 29/8/13 28/8/13 27/7/13
f 28/8/13 29/8/13 30/9/13
f 30/9/13 29/8/13 31/10/13
f 30/9/13 31/10/13 32/9/13
f 30/9/13 32/9/13 33/11/13
f 33/11/13 32/9/13 34/12/13
f 33/11/13 34/12/13 35/13/13
f 33/11/13 35/13/13 36/13/13
f 36/13/13 35/13/13 37/14/13
f 40/8/13 39/8/13 38/7/13
f 39/8/13 40/8/13 41/15/13
f 41/15/13 40/8/13 42/9/13
f 41/15/13 42/9/13 43/9/13
f 43/9/13 42/9/13 44/16/13
f 44/16/13 42/9/13 45/11/13
f 44/16/13 45/11/13 46/13/13
f 46/13/13 45/11/13 47/13/13
f 46/13/13 47/13/13 48/14/13

g aid-glasses




usemtl colormap

f 3/1/2 2/2/1 1/1/1
f 2/2/1 3/1/2 4/2/2
f 1/1/4 2/2/4 3/1/3
f 4/2/3 3/1/3 2/2/4
f 5/1/5 4/2/2 3/1/2
f 4/2/2 5/1/5 6/2/5
f 3/1/3 4/2/3 5/1/6
f 6/2/6 5/1/6 4/2/3
f 9/3/7 8/2/8 7/2/7
f 8/2/8 9/3/7 10/1/8
f 10/1/8 9/3/7 11/1/7
f 7/2/9 8/2/10 9/3/9
f 10/1/10 9/3/9 8/2/10
f 11/1/9 9/3/9 10/1/10
f 8/2/8 13/1/11 12/2/11
f 13/1/11 8/2/8 10/1/8
f 12/2/12 13/1/12 8/2/10
f 10/1/10 8/2/10 13/1/12
f 12/2/11 15/1/4 14/2/4
f 15/1/4 12/2/11 13/1/11
f 14/2/1 15/1/1 12/2/12
f 13/1/12 12/2/12 15/1/1
f 18/5/7 17/4/7 16/3/7
f 17/4/7 18/5/7 19/4/7
f 20/5/7 19/4/7 18/5/7
f 19/4/7 20/5/7 21/3/7
f 20/5/7 18/5/7 22/6/7
f 20/5/7 22/6/7 23/6/7
f 5/1/5 24/2/7 6/2/5
f 24/2/7 5/1/5 25/3/7
f 25/3/7 5/1/5 26/1/7
f 6/2/6 24/2/9 5/1/6
f 25/3/9 5/1/6 24/2/9
f 26/1/9 5/1/6 25/3/9
f 29/8/13 28/8/13 27/7/13
f 28/8/13 29/8/13 30/9/13
f 30/9/13 29/8/13 31/10/13
f 30/9/13 31/10/13 32/9/13
f 30/9/13 32/9/13 33/11/13
f 33/11/13 32/9/13 34/12/13
f 33/11/13 34/12/13 35/13/13
f 33/11/13 35/13/13 36/13/13
f 36/13/13 35/13/13 37/14/13
f 40/8/13 39/8/13 38/7/13
f 39/8/13 40/8/13 41/15/13
f 41/15/13 40/8/13 42/9/13
f 41/15/13 42/9/13 43/9/13
f 43/9/13 42/9/13 44/16/13
f 44/16/13 42/9/13 45/11/13
f 44/16/13 45/11/13 46/13/13
f 46/13/13 45/11/13 47/13/13
f 46/13/13 47/13/13 48/14/13

